<?xml version="1.0" encoding="utf-8"?>
<!-- Generator: Adobe Illustrator 16.0.0, SVG Export Plug-In . SVG Version: 6.00 Build 0)  -->
<!DOCTYPE svg PUBLIC "-//W3C//DTD SVG 1.1//EN" "http://www.w3.org/Graphics/SVG/1.1/DTD/svg11.dtd">
<svg version="1.1" id="Capa_1" xmlns="http://www.w3.org/2000/svg" xmlns:xlink="http://www.w3.org/1999/xlink" x="0px" y="0px"
	 width="246px" height="246px" viewBox="0 0 246 246" enable-background="new 0 0 246 246" xml:space="preserve">
<path fill="#FFFFFF" d="M14.365,122.275C14.306,61.87,63.268,12.873,123.867,12.691c60.288-0.18,109.479,48.978,109.576,109.506
	c0.097,60.376-48.98,109.493-109.5,109.583C63.579,231.872,14.423,182.748,14.365,122.275z M123.904,24.534
	c-53.887,0.007-97.667,43.785-97.696,97.691c-0.028,53.854,43.75,97.642,97.687,97.71c53.855,0.067,97.658-43.76,97.647-97.702
	C221.532,68.265,177.822,24.528,123.904,24.534z"/>
<path fill="#FFFFFF" d="M119.506,100.139c-7.592,5.968-15.058,11.838-22.64,17.798c1.475,1.157,2.871,2.253,4.342,3.407
	c7.534-5.917,15.056-11.825,22.646-17.786c3.044,2.384,6.06,4.745,9.166,7.178c-7.542,5.939-15.028,11.833-22.637,17.824
	c1.467,1.156,2.858,2.253,4.328,3.412c1.639-1.284,3.268-2.557,4.893-3.835c5.641-4.432,11.274-8.875,16.927-13.291
	c0.619-0.482,0.899-0.972,0.891-1.791c-0.044-4.629-0.021-9.258-0.021-13.887c0-0.392,0-0.782,0-1.264c5.459,0,10.854,0,16.392,0
	c0,11.026,0,22.084,0,33.227c5.51,0,10.879,0,16.329,0c0,4.617,0,9.151,0,13.767c-10.854,0-21.735,0-32.694,0
	c0-5.38,0-10.716,0-16.363c-9.131,7.188-18.064,14.219-27.073,21.31c-8.202-6.455-16.396-12.904-24.662-19.409
	c-0.398,0.761-0.74,1.488-1.144,2.178c-4.549,7.759-11.338,11.944-20.308,12.219c-7.026,0.217-14.065,0.051-21.099,0.052
	c-0.212,0-0.423-0.032-0.695-0.057c0-15.652,0-31.28,0-46.914c0.139-0.044,0.237-0.102,0.336-0.102
	c7.356,0.013,14.723-0.22,22.065,0.111c9.442,0.427,16.231,5.227,20.452,13.668c0.112,0.223,0.217,0.448,0.365,0.752
	c8.234-6.472,16.432-12.916,24.69-19.408C113.385,95.318,116.39,97.684,119.506,100.139z M58.268,111.263c0,6.805,0,13.392,0,20.064
	c1.44,0,2.83,0.046,4.216-0.009c5.939-0.229,9.466-3.828,9.6-9.759c0.12-5.365-2.798-9.138-7.94-9.993
	C62.255,111.253,60.297,111.356,58.268,111.263z"/>
<path fill="#FFFFFF" d="M174.607,144.909c0-15.698,0-31.329,0-47.037c5.445,0,10.879,0,16.416,0c0,11.068,0,22.098,0,33.259
	c5.497,0,10.89,0,16.343,0c0,4.664,0,9.196,0,13.777C196.432,144.909,185.546,144.909,174.607,144.909z"/>
</svg>
