<?xml version="1.0" encoding="utf-8"?>
<!-- Generator: Adobe Illustrator 16.0.0, SVG Export Plug-In . SVG Version: 6.00 Build 0)  -->
<!DOCTYPE svg PUBLIC "-//W3C//DTD SVG 1.1//EN" "http://www.w3.org/Graphics/SVG/1.1/DTD/svg11.dtd">
<svg version="1.1" id="Capa_1" xmlns="http://www.w3.org/2000/svg" xmlns:xlink="http://www.w3.org/1999/xlink" x="0px" y="0px"
	 width="246px" height="246px" viewBox="0 0 246 246" enable-background="new 0 0 246 246" xml:space="preserve">
<path fill-rule="evenodd" clip-rule="evenodd" fill="#FFFFFF" d="M72.012,82.229c0.384,0.146,0.756,0.373,1.153,0.427
	c5.902,0.806,11.415,2.582,15.952,6.622c4.718,4.202,7.188,9.606,8.074,15.781c0.241,1.678-0.491,2.657-2.387,3.257
	c-2.985,0.944-5.993,1.817-8.998,2.699c-4.286,1.258-8.573,2.515-12.871,3.733c-2.387,0.677-3.212,0.245-4.2-2.046
	c-0.242-0.561-0.469-1.129-0.689-1.699c-1.573-4.068-4.922-5.699-9.574-4.984c-4.428,0.68-7.296,3.602-9.458,7.317
	c-2.374,4.082-3.577,8.581-4.633,13.131c-1.729,7.445-3.418,14.9-3.649,22.585c-0.06,1.983-0.083,3.979,0.068,5.954
	c0.48,6.252,5.843,9.616,11.756,7.441c2.404-0.884,4.327-2.413,5.845-4.451c2.168-2.912,3.612-6.192,4.787-9.603
	c0.046-0.135,0.033-0.29,0.05-0.458c-1.838,0-3.63,0.016-5.422-0.004c-4.098-0.043-4.961-1.106-4.182-5.126
	c0.807-4.162,1.613-8.324,2.433-12.483c0.596-3.022,2.469-4.564,5.522-4.565c9.215-0.003,18.43-0.02,27.645,0.023
	c1.045,0.005,2.153,0.186,3.121,0.568c2.136,0.844,3.139,2.724,2.727,4.985c-2.019,11.089-4.786,21.963-10.009,32.034
	c-4.446,8.572-10.155,16.085-18.716,21.032c-5.505,3.182-11.396,5.151-17.743,5.713c-0.161,0.015-0.312,0.135-0.467,0.205
	c-2.601,0-5.202,0-7.803,0c-0.271-0.085-0.536-0.215-0.812-0.248c-5.504-0.663-10.681-2.26-15.276-5.447
	c-6.779-4.7-10.621-11.354-12.57-19.212c-1.877-7.566-1.863-15.219-0.705-22.872c1.76-11.628,4.909-22.847,10.465-33.276
	c8.251-15.49,20.898-24.686,38.537-26.635c0.273-0.03,0.525-0.262,0.787-0.4C64.515,82.229,68.263,82.229,72.012,82.229z"/>
<path fill-rule="evenodd" clip-rule="evenodd" fill="#FFFFFF" d="M240.229,94.393c-0.111,0.226-0.254,0.441-0.329,0.679
	c-1.596,5.017-6.667,7.57-11.696,5.881c-4.712-1.583-7.196-6.774-5.501-11.493c1.678-4.668,7.054-7.072,11.858-5.256
	c2.883,1.089,4.692,3.175,5.447,6.171c0.031,0.126,0.146,0.232,0.221,0.347C240.229,91.944,240.229,93.169,240.229,94.393z
	 M238.244,92.53c0-4.084-3.039-7.277-6.951-7.303c-3.962-0.026-7.124,3.205-7.118,7.272c0.006,4.125,3.16,7.307,7.228,7.29
	C235.259,99.772,238.243,96.606,238.244,92.53z"/>
<path fill-rule="evenodd" clip-rule="evenodd" fill="#FFFFFF" d="M142.457,83.818c8.03,0,16.061-0.001,24.091,0
	c2.813,0,3.983,1.383,3.449,4.161c-1.141,5.927-2.306,11.849-3.48,17.769c-0.452,2.28-2.111,3.542-4.661,3.549
	c-5.507,0.015-11.013,0.003-16.52,0.005c-2.835,0-4.264,1.119-4.829,3.863c-0.601,2.917-1.167,5.843-1.715,8.771
	c-0.414,2.218,0.926,3.812,3.198,3.817c5.66,0.011,11.319,0.003,16.979,0.003c0.307,0,0.612-0.009,0.918,0.003
	c1.892,0.074,3.038,1.454,2.68,3.316c-0.982,5.102-1.998,10.196-3.001,15.294c-0.081,0.412-0.16,0.825-0.249,1.235
	c-0.518,2.399-1.993,3.614-4.43,3.617c-5.774,0.007-11.549,0.002-17.322,0.002c-2.855,0.001-4.416,1.349-4.97,4.187
	c-2.123,10.873-4.26,21.743-6.406,32.611c-0.47,2.38-1.594,3.418-4.004,3.433c-8.298,0.049-16.596,0.044-24.894,0.01
	c-2.117-0.009-3.058-1.277-2.641-3.458c1.334-6.979,2.7-13.95,4.061-20.923c3.104-15.897,6.214-31.793,9.318-47.69
	c1.948-9.973,3.884-19.948,5.837-29.92c0.485-2.475,1.96-3.654,4.5-3.654C126.396,83.817,134.426,83.818,142.457,83.818z"/>
<path fill-rule="evenodd" clip-rule="evenodd" fill="#FFFFFF" d="M176.652,189.429c-3.824,0-7.649,0.005-11.474-0.002
	c-2.329-0.004-3.663-1.612-3.215-3.904c3.793-19.387,7.597-38.771,11.39-58.157c2.574-13.162,5.141-26.325,7.703-39.49
	c0.566-2.912,2.178-4.266,5.174-4.267c7.535-0.004,15.07-0.005,22.605,0c2.654,0.001,3.913,1.428,3.409,4.037
	c-1.932,10.017-3.921,20.023-5.875,30.037c-3.479,17.813-6.947,35.628-10.42,53.442c-0.906,4.65-1.806,9.302-2.723,13.949
	c-0.55,2.787-2.476,4.351-5.33,4.354C184.149,189.432,180.401,189.429,176.652,189.429z"/>
<path fill-rule="evenodd" clip-rule="evenodd" fill="#FFFFFF" d="M229.688,93.572c0,1.279,0,2.486,0,3.75c-0.61,0-1.129,0-1.715,0
	c0-3.039,0-6.076,0-9.225c1.746-0.338,3.505-0.573,5.26-0.031c0.975,0.301,1.614,0.975,1.754,2.047
	c0.164,1.252-0.457,2.027-1.282,2.431c0.588,1.576,1.159,3.108,1.737,4.657c-1.85,0.415-1.914,0.375-2.392-1.407
	C232.467,93.619,232.096,93.359,229.688,93.572z M229.689,92.234c1.006-0.152,1.884-0.168,2.679-0.435
	c0.896-0.301,1.179-1.581,0.421-2c-0.765-0.423-1.768-0.468-2.674-0.513c-0.117-0.005-0.317,0.981-0.413,1.52
	C229.638,91.17,229.689,91.555,229.689,92.234z"/>
</svg>
