<?xml version="1.0" encoding="utf-8"?>
<!-- Generator: Adobe Illustrator 16.0.0, SVG Export Plug-In . SVG Version: 6.00 Build 0)  -->
<!DOCTYPE svg PUBLIC "-//W3C//DTD SVG 1.1//EN" "http://www.w3.org/Graphics/SVG/1.1/DTD/svg11.dtd">
<svg version="1.1" id="Capa_1" xmlns="http://www.w3.org/2000/svg" xmlns:xlink="http://www.w3.org/1999/xlink" x="0px" y="0px"
	 width="246px" height="246px" viewBox="0 0 246 246" enable-background="new 0 0 246 246" xml:space="preserve">
<path fill-rule="evenodd" clip-rule="evenodd" fill="#FFFFFF" d="M167.808,123.443c2.259,3.936,4.535,7.902,6.876,11.98
	c-0.347,0.025-0.573,0.059-0.799,0.059c-3.156,0.003-6.313-0.01-9.469,0.014c-0.536,0.004-0.816-0.178-1.067-0.649
	c-1.568-2.958-3.182-5.892-4.751-8.85c-0.261-0.491-0.549-0.706-1.123-0.692c-1.747,0.037-3.496,0.036-5.243,0
	c-0.619-0.012-0.781,0.211-0.776,0.8c0.024,2.841-0.004,5.681,0.022,8.521c0.007,0.644-0.152,0.884-0.849,0.874
	c-2.913-0.038-5.826-0.031-8.739-0.004c-0.599,0.006-0.789-0.166-0.788-0.775c0.017-9.663,0.016-19.326,0.003-28.988
	c-0.001-0.562,0.157-0.759,0.741-0.758c6.434,0.018,12.868-0.012,19.301,0.026c1.92,0.012,3.817,0.308,5.633,1.001
	c3.158,1.206,4.892,3.541,5.393,6.832c0.258,1.69,0.25,3.384-0.125,5.064c-0.479,2.143-1.621,3.819-3.501,4.975
	c-0.206,0.127-0.414,0.254-0.617,0.385C167.893,123.282,167.877,123.336,167.808,123.443z M151.469,115.201
	c0,1.068,0.006,2.136-0.004,3.205c-0.003,0.374,0.096,0.596,0.528,0.592c2.184-0.019,4.37,0.031,6.553-0.05
	c1.645-0.061,2.867-1.109,3.249-2.571c0.707-2.702-0.874-4.854-3.673-4.926c-1.989-0.051-3.981,0.001-5.972-0.031
	c-0.563-0.01-0.707,0.204-0.692,0.724C151.488,113.162,151.467,114.182,151.469,115.201z"/>
<path fill-rule="evenodd" clip-rule="evenodd" fill="#FFFFFF" d="M117.298,128.721c0.418,0,0.707,0,0.995,0
	c5.244,0,10.487,0.017,15.73-0.02c0.762-0.006,0.939,0.229,0.92,0.943c-0.047,1.723-0.028,3.447-0.008,5.17
	c0.006,0.49-0.136,0.68-0.657,0.678c-8.836-0.012-17.671-0.012-26.507,0c-0.519,0.002-0.659-0.183-0.659-0.676
	c0.01-9.709,0.011-19.419-0.002-29.128c0-0.541,0.174-0.712,0.712-0.711c8.812,0.013,17.624,0.012,26.435,0.001
	c0.501,0,0.684,0.163,0.678,0.67c-0.021,1.747-0.035,3.496,0.006,5.243c0.017,0.662-0.229,0.817-0.845,0.814
	c-5.268-0.019-10.534-0.011-15.802-0.01c-0.994,0-0.995,0.002-0.996,0.992c-0.001,1.165-0.001,2.331,0,3.496
	c0,1.04,0,1.04,1.009,1.041c5.219,0,10.438,0,15.657,0c0.96,0,0.962,0.003,0.963,0.952c0.002,1.408,0.002,2.815,0,4.224
	c-0.001,0.975-0.003,0.977-1.013,0.977c-5.243,0-10.486,0.013-15.729-0.015c-0.691-0.004-0.927,0.177-0.902,0.887
	C117.334,125.699,117.298,127.151,117.298,128.721z"/>
<path fill-rule="evenodd" clip-rule="evenodd" fill="#FFFFFF" d="M218.586,129.908c0.536-1.091,0.973-1.98,1.411-2.868
	c0.526-1.065,1.076-2.121,1.57-3.202c0.231-0.508,0.527-0.713,1.106-0.701c1.893,0.039,3.787,0.015,5.681,0.015
	c0.26,0,0.52,0,0.93,0c-1.416-3.35-2.776-6.569-4.211-9.962c-0.293,0.552-0.512,0.941-0.709,1.341
	c-3.315,6.723-6.634,13.444-9.928,20.177c-0.283,0.579-0.602,0.807-1.267,0.795c-2.499-0.045-5-0.018-7.501-0.018
	c-0.264,0-0.528,0-0.925,0c0.113-0.307,0.176-0.523,0.271-0.726c4.587-9.69,9.18-19.378,13.755-29.074
	c0.237-0.503,0.502-0.72,1.088-0.714c3.471,0.03,6.942,0.022,10.414,0.007c0.488-0.002,0.784,0.11,1.011,0.597
	c4.525,9.746,9.07,19.482,13.609,29.222c0.088,0.189,0.143,0.395,0.247,0.688c-0.53,0-0.963,0-1.396,0
	c-2.938,0-5.875-0.015-8.813,0.013c-0.55,0.005-0.822-0.17-1.015-0.683c-0.527-1.408-1.131-2.787-1.653-4.196
	c-0.2-0.539-0.476-0.728-1.06-0.724c-3.86,0.027-7.72,0.014-11.58,0.014C219.342,129.908,219.06,129.908,218.586,129.908z"/>
<path fill-rule="evenodd" clip-rule="evenodd" fill="#FFFFFF" d="M81.715,135.43c-0.296,0.023-0.485,0.052-0.674,0.053
	c-2.961,0.002-5.923-0.012-8.884,0.014c-0.574,0.004-0.745-0.173-0.744-0.742c0.014-9.662,0.015-19.323,0-28.984
	c0-0.591,0.163-0.798,0.778-0.796c6.384,0.019,12.768-0.009,19.152,0.025c1.872,0.01,3.723,0.28,5.5,0.923
	c3.221,1.167,5.067,3.457,5.574,6.833c0.291,1.938,0.264,3.872-0.22,5.778c-1.022,4.031-4.172,6.845-8.397,7.458
	c-1.148,0.166-2.316,0.244-3.477,0.262c-2.597,0.038-5.195,0.028-7.792,0c-0.614-0.006-0.842,0.139-0.832,0.805
	c0.041,2.476,0.017,4.951,0.016,7.428C81.715,134.775,81.715,135.063,81.715,135.43z M81.753,119.413
	c0.17,0.035,0.309,0.09,0.447,0.089c2.132-0.02,4.267,0.014,6.396-0.089c2.133-0.104,3.526-1.628,3.585-3.74
	c0.068-2.41-1.13-4.026-3.396-4.175c-2.292-0.151-4.601-0.029-6.902-0.022c-0.037,0-0.075,0.054-0.129,0.097
	C81.753,114.171,81.753,116.781,81.753,119.413z"/>
<path fill-rule="evenodd" clip-rule="evenodd" fill="#FFFFFF" d="M173.036,104.985c0.384,0,0.622,0,0.86,0
	c2.963,0,5.925,0.017,8.888-0.014c0.608-0.006,0.888,0.208,1.125,0.755c2.882,6.657,5.789,13.303,8.69,19.951
	c0.123,0.285,0.255,0.565,0.445,0.984c0.78-1.648,1.506-3.168,2.223-4.693c2.55-5.421,5.104-10.841,7.635-16.271
	c0.251-0.538,0.56-0.733,1.157-0.726c2.694,0.032,5.391,0.014,8.086,0.014c0.238,0,0.477,0,0.831,0
	c-0.121,0.32-0.186,0.545-0.287,0.752c-4.722,9.683-9.448,19.364-14.161,29.05c-0.239,0.489-0.506,0.718-1.095,0.712
	c-3.229-0.033-6.46-0.029-9.689-0.004c-0.542,0.005-0.813-0.172-1.039-0.664c-4.439-9.681-8.896-19.354-13.349-29.03
	C173.258,105.587,173.183,105.362,173.036,104.985z"/>
<path fill-rule="evenodd" clip-rule="evenodd" fill="#FFFFFF" d="M55.527,115.249c-1.02,2.088-2.041,4.176-3.06,6.265
	c-2.193,4.49-4.381,8.983-6.591,13.466c-0.105,0.215-0.397,0.479-0.604,0.481c-2.84,0.027-5.681,0.014-8.521,0.006
	c-0.065,0-0.129-0.045-0.271-0.098c0.104-0.252,0.193-0.494,0.303-0.727c4.553-9.68,9.112-19.357,13.652-29.043
	c0.223-0.475,0.495-0.625,0.998-0.624c4.273,0.016,8.547,0.022,12.82-0.004c0.647-0.004,0.827,0.202,0.825,0.833
	c-0.016,9.616-0.018,19.23,0.002,28.846c0.001,0.684-0.221,0.856-0.875,0.848c-2.573-0.033-5.148-0.036-7.721,0.002
	c-0.659,0.009-0.81-0.209-0.808-0.831c0.02-6.191,0.012-12.384,0.012-18.575c0-0.264,0-0.527,0-0.791
	C55.634,115.285,55.58,115.267,55.527,115.249z"/>
<path fill-rule="evenodd" clip-rule="evenodd" fill="#FFFFFF" d="M35.566,133.289c-2.627-5.701-5.193-11.27-7.76-16.838
	c-0.053,0.002-0.106,0.004-0.16,0.007c0,0.242,0,0.483,0,0.725c0,5.779,0,11.558,0,17.335c0,0.965-0.002,0.966-0.938,0.967
	c-2.549,0-5.099-0.018-7.648,0.012c-0.604,0.008-0.784-0.176-0.783-0.779c0.016-9.64,0.017-19.279-0.001-28.918
	c-0.001-0.639,0.183-0.83,0.825-0.827c4.467,0.025,8.935,0.021,13.402,0.003c0.517-0.002,0.775,0.172,0.979,0.644
	c2.333,5.387,4.691,10.763,7.021,16.151c0.12,0.277,0.172,0.688,0.055,0.945c-1.551,3.398-3.138,6.78-4.719,10.165
	C35.792,132.983,35.713,133.072,35.566,133.289z"/>
<path fill-rule="evenodd" clip-rule="evenodd" fill="#FFFFFF" d="M11.881,135.447c-3.268,0-6.462,0-9.734,0
	c-0.016-0.284-0.043-0.541-0.043-0.799c-0.002-9.613,0.003-19.228-0.014-28.843c-0.001-0.621,0.145-0.843,0.805-0.835
	c2.768,0.035,5.536,0.029,8.303,0.003c0.58-0.005,0.739,0.184,0.738,0.75c-0.015,9.687-0.01,19.375-0.012,29.062
	C11.923,134.977,11.9,135.168,11.881,135.447z"/>
<path fill-rule="evenodd" clip-rule="evenodd" fill="#FFFFFF" d="M240.868,104.243c1.796,0.006,3.156,1.393,3.143,3.203
	c-0.014,1.743-1.41,3.121-3.164,3.123c-1.791,0.002-3.178-1.385-3.177-3.179C237.671,105.601,239.057,104.237,240.868,104.243z
	 M243.452,107.378c-0.018-1.45-1.244-2.642-2.675-2.6c-1.396,0.041-2.607,1.284-2.576,2.645c0.033,1.434,1.287,2.646,2.695,2.606
	C242.313,109.988,243.47,108.789,243.452,107.378z"/>
<path fill-rule="evenodd" clip-rule="evenodd" fill="#FFFFFF" d="M240.379,107.798c0,0.375,0.029,0.706-0.013,1.028
	c-0.019,0.146-0.178,0.274-0.273,0.411c-0.11-0.125-0.314-0.247-0.318-0.375c-0.026-0.97-0.021-1.941-0.007-2.911
	c0.002-0.124,0.076-0.293,0.174-0.362c0.353-0.25,1.714-0.007,1.988,0.332c0.346,0.427,0.246,1.04-0.261,1.624
	c-0.046,0.053-0.075,0.121-0.131,0.21c0.241,0.454,0.487,0.916,0.765,1.438C241.088,109.449,241.332,107.95,240.379,107.798z
	 M240.428,107.268c0.376-0.135,0.685-0.206,0.938-0.363c0.078-0.048,0.069-0.453-0.006-0.493c-0.264-0.14-0.574-0.191-0.933-0.295
	C240.428,106.549,240.428,106.826,240.428,107.268z"/>
</svg>
