<?xml version="1.0" encoding="utf-8"?>
<!-- Generator: Adobe Illustrator 16.0.0, SVG Export Plug-In . SVG Version: 6.00 Build 0)  -->
<!DOCTYPE svg PUBLIC "-//W3C//DTD SVG 1.1//EN" "http://www.w3.org/Graphics/SVG/1.1/DTD/svg11.dtd">
<svg version="1.1" id="Capa_1" xmlns="http://www.w3.org/2000/svg" xmlns:xlink="http://www.w3.org/1999/xlink" x="0px" y="0px"
	 width="246px" height="246px" viewBox="0 0 246 246" enable-background="new 0 0 246 246" xml:space="preserve">
<path fill-rule="evenodd" clip-rule="evenodd" fill="#FFFFFF" d="M73.77,128.475c1.168,1.701,2.337,3.403,3.505,5.104
	c0.355,0.781-0.129,1.102-0.741,1.352c-1.907,0.067-2.686-1.627-3.972-2.533c-1.036-1.299-2.426-1.853-4.049-1.926
	c-0.577-0.254-0.982-0.671-1.206-1.26c0.563-2.438-1.04-3.851-2.531-5.311c-0.783-0.29-0.463-2.101-1.969-1.405
	c-1.149-0.34-1.425-1.532-2.216-2.221c-0.638-0.696-1.322-1.372-1.139-2.449c0.177-0.341,0.404-0.648,0.663-0.93
	c1.492-1.345,1.042-3.136,1.09-4.813c-0.027-1.058-0.044-2.111-0.056-3.167c0.092-2.023-0.199-4.023-0.321-6.032
	c0.809-4.375-0.575-8.625-0.739-12.94c-0.126-3.322-3.529-3.006-4.948-4.843c0.145-1.768,1.985-1.396,2.839-2.271
	c1.034-0.585,1.833-1.946,3.333-1.047c1.74,7.855,3.242,15.737,2.764,23.849c0.309,0.328,0.499,0.715,0.576,1.158
	c0.029,0.435-0.003,0.867-0.089,1.292c-0.453,2.716-0.138,5.459-0.246,8.183c0.019,1.296-0.185,2.653,0.982,3.644
	c1.181,1.182,2.336,2.389,3.777,3.265c0.469,0.281,0.933,0.571,1.404,0.849c0.323,0.169,0.628,0.367,0.926,0.577
	c0.736,0.547,1.414,1.156,2.009,1.858C73.84,127.077,74.265,127.697,73.77,128.475z"/>
<path fill-rule="evenodd" clip-rule="evenodd" fill="#FFFFFF" d="M60.68,144.09c-2.824,4.806-2.918,10.51-5.116,15.538
	c-0.931,2.13-1.634,4.357-3.099,6.199c-3.246,4.077-5.892,3.687-7.943-1.064c-0.54-1.251-0.694-2.504-0.687-3.818
	c-0.512-0.897-0.508-1.64,0.612-2.045c1.538,0.71,1.555,2.333,2.151,3.608c0.48,1.024,0.673,2.437,2.089,2.487
	c1.347,0.049,1.961-1.202,2.45-2.215c2.602-5.385,4.332-11.069,5.597-16.903c0.087-0.804,0.243-1.594,0.446-2.374
	c0.879-2.051,0.067-4.252,0.536-6.332c0.319-1.553-1.005-1.626-1.899-2.087c-0.764-0.482-1.103-1.133-0.814-2.031
	c0.208-0.348,0.491-0.624,0.833-0.84c1.642-0.524,3.238-1.15,4.591-2.271c0.841-0.162,1.813,0.366,2.533-0.485
	c1.273-0.376,2.498-0.38,3.638,0.397c0.732,2.044-1.244,2.413-2.126,3.461c-2.563,1.68-2.767,4.301-2.778,6.999
	C61.68,141.663,61.63,142.998,60.68,144.09z"/>
<path fill-rule="evenodd" clip-rule="evenodd" fill="#FFFFFF" d="M96.682,129.705c0,2.902-0.035,5.805,0.014,8.706
	c0.026,1.528-0.335,2.45-2.147,2.432c-1.689-0.018-2.305-0.683-2.291-2.34c0.05-5.804,0.045-11.607-0.002-17.412
	c-0.013-1.581,0.433-2.389,2.196-2.401c1.717-0.011,2.291,0.669,2.25,2.31C96.629,123.9,96.681,126.804,96.682,129.705z"/>
<path fill-rule="evenodd" clip-rule="evenodd" fill="#FFFFFF" d="M170.779,132.128c0,3.057,0.019,5.072-0.01,7.088
	c-0.011,0.795-0.366,1.466-1.248,1.472c-0.938,0.007-1.144-0.741-1.149-1.506c-0.019-3.066-0.15-6.143,0.026-9.199
	c0.154-2.672,1.747-1.8,2.939-0.791c2.877,2.431,5.654,4.98,9.301,8.219c0-3.037-0.018-5.125,0.009-7.213
	c0.011-0.871,0.026-1.893,1.272-1.821c0.861,0.049,1.11,0.804,1.154,1.583c0.017,0.291,0.064,0.589,0.026,0.875
	c-0.422,3.25,1.681,7.979-0.97,9.428c-2.854,1.559-4.782-3.294-7.402-4.943C173.648,134.639,172.722,133.715,170.779,132.128z"/>
<path fill-rule="evenodd" clip-rule="evenodd" fill="#FFFFFF" d="M229.118,140.775c-1.462,0-2.922-0.007-4.384,0.002
	c-1.229,0.009-1.95-0.629-2.034-1.808c-0.036-0.5,0.164-1.296,0.517-1.495c1.064-0.6,1.337,0.784,1.938,1.003
	c2.504,0.913,5.176,0.379,7.782,0.353c1.226-0.012,1.253-0.994,1.188-1.893c-0.083-1.149-0.93-1.356-1.86-1.368
	c-2.045-0.025-4.091-0.063-6.136-0.029c-2.547,0.041-3.22-1.443-3.219-3.66c0.002-2.248,0.773-3.667,3.275-3.612
	c2.627,0.057,5.259,0.021,7.883,0.142c1.34,0.063,2.367,0.901,1.948,2.285c-0.55,1.812-1.47,0.914-2.554,0.188
	c-1.947-1.302-4.243-0.401-6.381-0.556c-1.039-0.075-1.6,0.513-1.594,1.59c0.006,1.093,0.604,1.56,1.635,1.568
	c1.752,0.015,3.518,0.152,5.257-0.003c2.688-0.24,4.126,0.681,4.166,3.544c0.042,3.07-1.457,4.152-4.36,3.808
	c-1.009-0.119-2.044-0.019-3.066-0.019C229.118,140.803,229.118,140.789,229.118,140.775z"/>
<path fill-rule="evenodd" clip-rule="evenodd" fill="#FFFFFF" d="M140.127,140.85c-1.699-0.444-4.579,1.189-5.732-1.019
	c-1.642-3.145-0.58-6.849-0.596-10.313c-0.003-0.633,0.511-1.047,1.152-1.062c0.931-0.022,1.207,0.639,1.22,1.423
	c0.03,1.893,0.238,3.813-0.005,5.672c-0.497,3.813,1.987,3.363,4.346,3.348c2.457-0.019,5.185,0.561,4.621-3.523
	c-0.236-1.714-0.04-3.489-0.012-5.236c0.017-0.948,0.305-1.73,1.464-1.711c1.158,0.018,1.419,0.817,1.423,1.758
	c0.013,2.474,0.032,4.95-0.021,7.424c-0.049,2.296-1.158,3.461-3.577,3.26C143.109,140.762,141.792,140.85,140.127,140.85z"/>
<path fill-rule="evenodd" clip-rule="evenodd" fill="#FFFFFF" d="M212.475,140.71c-1.424-0.361-4.601,1.348-5.689-1.053
	c-1.359-2.991-0.737-6.577-0.249-9.888c0.174-1.181,1.387-1.412,2.436-1.432c2.624-0.049,5.247-0.032,7.87-0.039
	c1.45-0.004,2.595,0.445,2.906,2.041c0.17,0.871,0.277,1.835-0.708,2.264c-1.74,0.759-1.565-1.348-2.36-1.702
	c-2.409-1.074-5.75-1.632-7.266,0.139c-1.443,1.687-1.049,5.004-0.032,7.455c0.431,1.037,6.962,0.532,7.582-0.605
	c0.509-0.93,0.585-2.003,2.025-1.54c0.889,0.285,0.955,1.039,0.862,1.767c-0.146,1.153-0.26,2.468-1.804,2.57
	C216.453,140.792,214.846,140.71,212.475,140.71z"/>
<path fill-rule="evenodd" clip-rule="evenodd" fill="#FFFFFF" d="M23.687,107.331c-2.166-2.57-4.12-5.263-5.295-8.462
	c-0.629-1.711-1.122-3.415,0.277-4.925c1.327-1.437,2.9-1.393,4.804-0.943c7.126,1.686,13.13,5.385,18.746,9.875
	c-0.179,0.665-0.592,1.092-1.268,1.251c-4.751-1.453-8.466-4.94-13.07-6.688c-2.107-0.8-4.706-2.809-6.376-1.063
	c-1.618,1.691,0.922,3.849,1.796,5.732c0.661,1.424,1.836,2.628,1.731,4.357C24.814,107.111,24.498,107.608,23.687,107.331z"/>
<path fill-rule="evenodd" clip-rule="evenodd" fill="#FFFFFF" d="M69.501,109.903c5.921-0.114,11.629-2.287,17.625-1.768
	c2.818,0.243,6.298-0.623,7.469,2.88c1.148,3.435-1.914,5.072-4.133,6.884c-0.862,0.257-1.18-0.257-1.366-0.958
	c2.306-5.884,2.306-5.829-4.398-5.869c-4.542-0.027-8.883,1.069-13.257,2.057c-1.294-0.091-2-0.87-2.379-2.031
	C68.974,110.615,69.122,110.216,69.501,109.903z"/>
<path fill-rule="evenodd" clip-rule="evenodd" fill="#FFFFFF" d="M199.265,129.194c-5.868,2.167-5.858,2.168-6.313,8.845
	c-0.073,1.07,0.402,2.68-1.396,2.626c-1.799-0.053-1.109-1.687-1.246-2.716c-0.094-0.718-0.116-1.473-0.003-2.186
	c0.608-3.825-0.334-6.241-4.865-5.646c-0.262,0.035-0.593-0.462-0.938-0.75C187.434,127.931,194.629,127.77,199.265,129.194z"/>
<path fill-rule="evenodd" clip-rule="evenodd" fill="#FFFFFF" d="M39.218,140.813c-3.42,0.457-6.915,0.477-10.207,1.701
	c-0.526-0.548-0.577-1.175-0.307-1.854c1.948-1.629,4.5-1.514,6.726-2.334c0.393-0.127,0.798-0.218,1.203-0.298
	c1.77-0.228,3.454-0.793,5.122-1.397c0.357-0.131,0.725-0.227,1.096-0.305c1.077-0.188,2.154-0.384,3.179-0.79
	c0.871-0.315,1.549-0.942,2.313-1.44c0.367-0.161,0.745-0.255,1.144-0.286c0.638,0.013,1.208,0.196,1.685,0.635
	c0.366,0.55,0.481,1.157,0.414,1.806c-0.087,0.414-0.261,0.79-0.512,1.131c-1.157,0.904-2.587,1.158-3.922,1.64
	c-0.743,0.252-1.49,0.499-2.234,0.752c-0.923,0.307-1.844,0.627-2.794,0.851C41.169,140.902,40.183,140.68,39.218,140.813z"/>
<path fill-rule="evenodd" clip-rule="evenodd" fill="#FFFFFF" d="M21.752,144.326c-1.986-1.672-4.417-0.683-6.613-1.099
	c-4.842-0.916-5.598-2.718-2.882-6.96c0.821-0.264,1.161,0.249,1.43,0.88c1.567,3.894,3.401,4.266,7.575,1.528
	c3.696-2.424,5.328-2.133,6.948,1.242C25.783,140.985,23.393,142.106,21.752,144.326z"/>
<path fill-rule="evenodd" clip-rule="evenodd" fill="#FFFFFF" d="M76.356,134.53c0.306-0.316,0.611-0.633,0.918-0.951
	c3.605,3.091,6.043,7.115,8.327,11.145c0.938,1.655,2.137,3.074,3.079,4.688c-1.656,1.572-4.038,1.119-5.898,2.119
	c-0.422,0.07-0.832,0.017-1.226-0.15c-0.469-0.633-0.702-1.56-0.161-1.982c3.298-2.571,0.891-4.629-0.401-6.92
	C79.488,139.803,76.355,138.074,76.356,134.53z"/>
<path fill-rule="evenodd" clip-rule="evenodd" fill="#FFFFFF" d="M82.492,151.206c1.448-2.717,4.041-1.489,6.188-1.795
	c1.541,1.963,1.299,3.854-0.617,5.274c-1.991,1.475-4.034,1.515-5.599-0.815C81.88,152.977,81.743,152.087,82.492,151.206z"/>
<path fill-rule="evenodd" clip-rule="evenodd" fill="#FFFFFF" d="M89.518,116.981c0.314,0.306,0.63,0.611,0.945,0.917
	c-3.52,3.529-7.966,5.598-12.295,7.865c-1.522,0.798-2.936,1.801-4.398,2.71c-0.309-0.566-0.618-1.134-0.927-1.701
	c0.091-1.375,0.703-2.655,0.727-4.044c0.087-0.817,0.242-1.61,0.815-2.25c2.907,3.59,5.485,0.958,8.253-0.321
	C84.93,119.099,86.56,116.578,89.518,116.981z"/>
<path fill-rule="evenodd" clip-rule="evenodd" fill="#FFFFFF" d="M61.314,81.784c-1.338-0.036-1.603,1.353-2.509,1.891
	c-1.277,0.777-2.749,0.109-4.073,0.545c-0.48-0.047-0.89-0.243-1.23-0.586c-0.354-2.814,0.009-5.318,3.347-5.952
	C60.015,77.081,60.463,79.715,61.314,81.784z"/>
<path fill-rule="evenodd" clip-rule="evenodd" fill="#FFFFFF" d="M21.752,144.326c0.186-4.163,2.83-4.874,6.27-4.469
	c0.555,0.088,0.88,0.389,0.902,0.973c0.029,0.561,0.058,1.122,0.087,1.684C26.918,146.632,25.25,147.048,21.752,144.326z"/>
<path fill-rule="evenodd" clip-rule="evenodd" fill="#FFFFFF" d="M82.492,151.206c-0.01,0.888-0.019,1.776-0.028,2.664
	c-7.355-2.554-13.406-7.932-21.102-9.745c-0.077-1.819,1.345-1.955,2.581-2.305c0.432-0.015,0.858,0.038,1.275,0.153
	c5.247,3.395,11.155,5.626,16.314,9.187C81.852,151.176,82.172,151.19,82.492,151.206z"/>
<path fill-rule="evenodd" clip-rule="evenodd" fill="#FFFFFF" d="M53.501,83.634c0.299,0.007,0.598,0.015,0.898,0.021
	c0.314,0.294,0.446,0.658,0.42,1.083c-0.889,3.969-2.885,7.559-3.935,11.478c-0.453,1.691-1.136,3.341,0.198,4.944
	c0.078,0.735-0.322,1.173-0.917,1.497c-0.84,0.343-1.698,0.369-2.571,0.16c-0.433-0.135-0.791-0.38-1.078-0.73
	c1.468-4.861,2.9-9.734,4.426-14.577C51.416,86.011,51.863,84.405,53.501,83.634z"/>
<path fill-rule="evenodd" clip-rule="evenodd" fill="#FFFFFF" d="M202.761,135.139c-0.564,1.601,1.037,5.353-1.112,5.248
	c-2.987-0.145-1.327-3.806-1.315-5.817c0.013-2.002-1.717-5.646,1.319-5.787c2.136-0.101,0.618,3.632,1.104,5.582
	C202.79,134.501,202.761,134.655,202.761,135.139z"/>
<path fill-rule="evenodd" clip-rule="evenodd" fill="#FFFFFF" d="M44.655,159.121c-0.273,0.606-0.546,1.215-0.82,1.822
	c-1.666-3.622-1.73-7.487-1.723-11.364c0.005-2.163,0.17-4.346-0.731-6.406c1.229-0.723,2.211-0.148,3.164,0.602
	c0.514,0.557,0.705,1.225,0.689,1.967c-0.1,3.14-0.263,6.275,0.238,9.406C45.695,156.546,45.962,158.011,44.655,159.121z"/>
<path fill-rule="evenodd" clip-rule="evenodd" fill="#FFFFFF" d="M23.687,107.331c0.304-0.317,0.608-0.635,0.912-0.952
	c3.977,1.358,5.629,5.166,8.315,7.889c0.223,0.623,0.25,1.257,0.126,1.903c-0.517,1.077-0.419,2.711-2.297,2.569
	c0.566-2.901-1.514-4.421-3.14-6.253C26.174,110.877,24.982,109.058,23.687,107.331z"/>
<path fill-rule="evenodd" clip-rule="evenodd" fill="#FFFFFF" d="M20.094,130.093c2.861-2.409,6.152-4.044,9.626-5.35
	c0.585,0.458,0.686,1.067,0.551,1.753c-2.236,2.914-5.477,4.01-8.846,4.878C20.722,131.218,20.287,130.78,20.094,130.093z"/>
<path fill-rule="evenodd" clip-rule="evenodd" fill="#FFFFFF" d="M69.501,109.903c-0.093,0.245-0.128,0.498-0.104,0.758
	c0.465,1.144-0.019,2.043-0.741,2.882c-2.561,0.071-2.591-2.223-3.483-3.715c-0.497-1.066-0.435-2.292-0.95-3.358
	c-0.104-0.27-0.153-0.548-0.147-0.837C67.266,105.303,67.752,108.405,69.501,109.903z"/>
<path fill-rule="evenodd" clip-rule="evenodd" fill="#FFFFFF" d="M20.094,130.093c0.322,0.289,0.645,0.578,0.968,0.867
	c-0.817,2.575-2.692,3.766-5.275,4.033c-0.653-0.217-1.179-0.52-0.877-1.355C16.612,132.419,17.824,130.482,20.094,130.093z"/>
<path fill-rule="evenodd" clip-rule="evenodd" fill="#FFFFFF" d="M41.179,103.932c0.346-0.352,0.691-0.704,1.038-1.056
	c0.596,0.053,1.191,0.107,1.787,0.16c1.258,1.128,3.127,1.615,3.662,3.502c-0.034,0.663-0.406,1.076-0.987,1.336
	c-0.583,0.177-1.164,0.164-1.743-0.014c-1.388-0.7-2.478-1.78-3.579-2.847C41.137,104.68,41.087,104.318,41.179,103.932z"/>
<path fill-rule="evenodd" clip-rule="evenodd" fill="#FFFFFF" d="M43.991,144.087c-0.87-0.305-1.74-0.609-2.61-0.914
	c-0.721-0.786-1.442-1.574-2.163-2.361c0.654-1.177,1.844-0.918,2.879-1.071c0.918,0.49,1.913,0.894,2.314,1.988
	C44.646,142.58,44.684,143.399,43.991,144.087z"/>
<path fill-rule="evenodd" clip-rule="evenodd" fill="#FFFFFF" d="M47.385,106.405c-1.176-1.074-3.325-1.171-3.381-3.368
	c0.838-0.316,1.676-0.633,2.513-0.949c0.225,0.173,0.476,0.293,0.751,0.361c0.743,0.38,1.048,1.075,1.306,1.806
	c0.103,0.372,0.115,0.749,0.057,1.13C48.401,105.948,47.995,106.302,47.385,106.405z"/>
<path fill-rule="evenodd" clip-rule="evenodd" fill="#FFFFFF" d="M64.083,142.353c-0.907,0.591-1.813,1.183-2.72,1.772l-0.343,0.02
	l-0.339-0.055c-0.431-1.458-0.198-2.892,0.172-4.317c1.043-0.805,1.826-0.144,2.622,0.462
	C63.994,140.848,64.48,141.475,64.083,142.353z"/>
<path fill-rule="evenodd" clip-rule="evenodd" fill="#FFFFFF" d="M30.569,120.423c0.046-0.29,0.136-0.565,0.271-0.826
	c1.947-1,2.41,0.598,3.119,1.775c0.367,1.163,0.404,2.299-0.307,3.365c-1.793,0.828-2.399-0.628-3.218-1.674
	C30.261,122.174,30.171,121.286,30.569,120.423z"/>
<path fill-rule="evenodd" clip-rule="evenodd" fill="#FFFFFF" d="M33.248,121.546c-0.813-0.637-1.014-2.03-2.408-1.949
	c-0.088-0.279-0.121-0.564-0.098-0.857c0.507-0.953,1.015-1.905,1.521-2.857c1.471-0.166,1.752,0.914,2.064,1.966
	C34.477,119.229,34.473,120.567,33.248,121.546z"/>
<path fill-rule="evenodd" clip-rule="evenodd" fill="#FFFFFF" d="M14.909,133.638c0.321,0.307,0.643,0.613,0.964,0.92
	c0.097,1.895-0.766,2.814-2.693,2.655c-0.308-0.315-0.615-0.63-0.923-0.945C12.863,135.11,13.734,134.222,14.909,133.638z"/>
<path fill-rule="evenodd" clip-rule="evenodd" fill="#FFFFFF" d="M30.569,120.423c0.048,0.884,0.097,1.768,0.146,2.653
	c1.021,1.274,1.214,2.636,0.434,4.1c-0.781,0.723-1.207,0.509-1.326-0.507c-0.034-0.642-0.067-1.283-0.102-1.925
	C29.915,123.285,29.403,121.689,30.569,120.423z"/>
<path fill="#FFFFFF" d="M129.89,133.176c0-3.213-0.011-6.427-0.011-9.639c-0.001-3.239-1.584-4.84-4.854-4.81
	c-3.797,0.034-7.594,0.005-11.391,0.004c-10.821,0-10.74,0-10.841,10.772c-0.125,13.353,0.393,11.307,11.471,11.22
	c3.296-0.025,5.22,0.855,6.044,4.079c0.602,2.354,2.037,3.461,4.733,2.347c-0.718-1.866-1.433-3.726-2.309-6.005
	C129.856,140.319,129.887,140.286,129.89,133.176z M123.906,137.268c-2.031,0.259-3.762,0-4.454-2.352
	c-0.245-0.827-0.612-1.657-1.1-2.363c-0.623-0.902-0.581-2.876-2.641-1.795c-1.978,1.038-0.447,2.18-0.172,3.282
	c0.236,0.954,1.144,1.718,0.832,2.816c-0.128,0.101-0.224,0.24-0.333,0.252c-8.833,0.93-8.834,0.93-8.833-7.805
	c0-7.058,0.002-7.146,7.129-7.021c3.592,0.063,8.262-1.607,10.489,0.699c2.202,2.283,0.573,6.926,0.605,10.528
	C125.44,134.804,126.584,136.926,123.906,137.268z"/>
<path fill-rule="evenodd" clip-rule="evenodd" fill="#FFFFFF" d="M66.614,130.181c-1.413-0.062-2.826-0.123-4.238-0.185
	c-1.763-1.961-0.595-3.828,0.175-5.712c0.557-0.844,1.371-1.148,2.348-1.102c0.979,0.798,1.934,1.63,2.945,2.387
	c1.912,1.432,1.331,2.637-0.276,3.79C67.774,130.241,67.382,130.43,66.614,130.181z"/>
<path fill-rule="evenodd" clip-rule="evenodd" fill="#FFFFFF" d="M74.483,123.141c0.357,1.619-0.094,2.873-1.641,3.632
	c-0.591-0.613-1.182-1.227-1.772-1.84c-0.01-0.146-0.02-0.293-0.031-0.438c-0.084-0.427-0.143-0.858-0.293-1.266
	c-0.212-0.392-0.504-0.715-0.841-1.005c-0.25-0.19-0.475-0.401-0.694-0.623c-0.218-0.231-0.41-0.481-0.59-0.741
	c-0.195-0.249-0.375-0.506-0.559-0.761c-0.1-0.121-0.189-0.25-0.287-0.371c-0.192-0.241-0.349-0.505-0.488-0.786
	c-0.104-0.311-0.147-0.628-0.149-0.954c-0.051-0.554-0.593-0.821-0.758-1.31c-0.016-0.392,0.077-0.748,0.292-1.075
	c0.568-0.621,1.255-0.942,2.11-0.852C72.092,116.588,73.402,119.787,74.483,123.141z"/>
<path fill-rule="evenodd" clip-rule="evenodd" fill="#FFFFFF" d="M59.595,117.872c0.59,0.586,1.181,1.173,1.771,1.76
	c0.719,1.308,0.814,2.673,0.377,4.085c-0.27,0.294-0.608,0.469-1.006,0.52c-1.042-0.395-1.919-1.14-3.008-1.451
	c-0.705-0.263-1.409-0.526-2.066-0.901c-0.891-0.592-1.183-1.473-1.201-2.485c0.017-0.375,0.099-0.741,0.233-1.092
	c0.537-0.434,0.845-0.832-0.172-1.022c-0.269-0.306-0.357-0.65-0.242-1.046c0.24-0.335,0.545-0.581,0.92-0.75
	C57.312,115.094,58.955,115.562,59.595,117.872z"/>
<path fill-rule="evenodd" clip-rule="evenodd" fill="#FFFFFF" d="M66.614,130.181c0.318-0.273,0.635-0.548,0.953-0.822
	c0.275,0.307,0.55,0.612,0.825,0.919c1.372,1.178,1.985,2.858,2.879,4.352c-0.087,1.767-0.511,3.277-2.647,3.489
	c-0.179-0.024-0.358-0.047-0.538-0.069c-1.227-0.538-1.777-1.71-2.532-2.688c-0.347-0.381-0.732-0.721-1.146-1.033
	c-0.285-0.212-0.511-0.476-0.689-0.781c-0.094-0.37,0.011-0.664,0.34-0.869C64.316,131.237,66.235,131.497,66.614,130.181z"/>
<path fill-rule="evenodd" clip-rule="evenodd" fill="#FFFFFF" d="M69.331,120.486c0.001,0.278-0.001,0.556-0.008,0.834
	c0,0-0.041,0.39-0.039,0.389c0.003,0-0.027,0.387-0.027,0.387s0.362,0.143,0.367,0.149c0.005,0.005,0.186,0.364,0.19,0.369
	c0.087,0.286,0.089,0.566,0.014,0.851c-0.061,0.317-0.242,0.529-0.542,0.643c-2.206-0.301-3.279-1.954-4.333-3.629
	c-1-0.974-1.388-2.174-1.311-3.547c0.003-0.667-0.034-1.342,0.355-1.939c0.847-0.569,1.71-0.576,2.591-0.088
	c0.413,0.357,0.452,0.751,0.117,1.182c0.002,0.309,0.006,0.616,0.008,0.924c0.316,0.272,0.812,0.369,0.872,0.891
	c-0.002,0.278-0.004,0.557-0.007,0.834c0.307,0.279,0.569,0.602,0.879,0.878l-0.009-0.01
	C68.741,119.899,69.005,120.223,69.331,120.486z"/>
<path fill-rule="evenodd" clip-rule="evenodd" fill="#FFFFFF" d="M60.583,124.018c1.439-1.252,0.74-2.885,0.783-4.386
	c0.59,0.866,1.181,1.733,1.771,2.599c0.579,0.538,0.57,1.113,0.107,1.716c-0.29,2.018-0.58,4.033-0.87,6.049
	c-0.455,1.126-1.091,0.346-1.67,0.159c-0.406-0.236-0.695-0.574-0.871-1.011c-0.374-1.106-0.382-2.238-0.232-3.383
	C59.732,125.07,60.001,124.455,60.583,124.018z"/>
<path fill-rule="evenodd" clip-rule="evenodd" fill="#FFFFFF" d="M71.27,134.629c-2.5-0.432-2.701-2.383-2.878-4.352
	c2.408-1.923,3.555-0.354,4.547,1.644C72.633,132.978,72.702,134.266,71.27,134.629z"/>
<path fill-rule="evenodd" clip-rule="evenodd" fill="#FFFFFF" d="M59.595,117.872c-1.551-0.975-2.978-2.274-5.035-1.926
	c-0.158-0.106-0.315-0.212-0.474-0.316c-0.421-0.724-0.384-1.462-0.076-2.213c0.299-0.526,0.721-0.915,1.281-1.153
	c0.394-0.073,0.78-0.041,1.16,0.087c0.886,0.448,1.586,1.169,2.445,1.66c1.577,0.808,2.969,1.707,1.743,3.797
	C60.292,117.829,59.943,117.851,59.595,117.872z"/>
<path fill-rule="evenodd" clip-rule="evenodd" fill="#FFFFFF" d="M60.64,117.809c0.717-2.22-2.361-2.227-2.352-4.033
	c0.146-0.938,0.935-1.012,1.628-1.222c0.735-0.122,1.477-0.294,2.167,0.166C62.13,114.565,62.916,116.621,60.64,117.809z"/>
<path fill-rule="evenodd" clip-rule="evenodd" fill="#FFFFFF" d="M59.688,102.887c0.536,0.054,1.071,0.108,1.607,0.164
	c1.644,1.843,0.946,4.025,0.883,6.116c-0.364,0.195-0.73,0.201-1.102,0.019c-0.853-0.602-1.23-1.504-1.557-2.443
	c-0.321-0.934-0.646-1.87-0.472-2.886C59.163,103.468,59.377,103.146,59.688,102.887z"/>
<path fill-rule="evenodd" clip-rule="evenodd" fill="#FFFFFF" d="M61.431,109.086c0.25,0.021,0.499,0.046,0.748,0.079
	c-0.031,1.184-0.063,2.367-0.095,3.552c-0.779,0.213-1.558,0.423-2.336,0.633c-1.006-0.813-1.406-1.864-1.24-3.138
	C59.197,109.107,60.45,109.449,61.431,109.086z"/>
<path fill-rule="evenodd" clip-rule="evenodd" fill="#FFFFFF" d="M63.964,115.232c-0.007,0.504-0.014,1.008-0.021,1.512
	c-0.065,0.408-0.282,0.548-0.672,0.381c0.105-3.28-0.846-6.626,0.625-9.819c0.946,0.584,0.977,1.567,1.093,2.512
	c0.191,0.947,0.256,1.902,0.173,2.866C65.098,113.69,64.724,114.553,63.964,115.232z"/>
<path fill-rule="evenodd" clip-rule="evenodd" fill="#FFFFFF" d="M63.271,117.125c0.229-0.118,0.453-0.245,0.673-0.38
	c0.336,1.244,0.673,2.49,1.009,3.735C62.698,120.212,63.452,118.434,63.271,117.125z"/>
<path fill-rule="evenodd" clip-rule="evenodd" fill="#FFFFFF" d="M64.15,109.881c-0.085-0.858-0.169-1.717-0.254-2.575
	c0.109-0.278,0.219-0.557,0.329-0.835c1.064,0.559,1.572,1.446,1.551,2.642c-0.283,0.388-0.376,0.919-0.869,1.149
	C64.55,110.345,64.297,110.218,64.15,109.881z"/>
<path fill-rule="evenodd" clip-rule="evenodd" fill="#FFFFFF" d="M63.245,123.947c-0.036-0.571-0.071-1.144-0.107-1.716
	c1.24-0.891,1.262,0.472,1.76,0.952C64.531,123.836,63.936,123.994,63.245,123.947z"/>
<path fill-rule="evenodd" clip-rule="evenodd" fill="#FFFFFF" d="M55.132,84.64l-0.348-0.03c0,0-0.349,0.009-0.349,0.01
	c-0.012-0.321-0.024-0.644-0.036-0.966c1.468,0.007,2.937,0.013,4.405,0.02C57.829,84.941,56.364,84.346,55.132,84.64z"/>
<path fill-rule="evenodd" clip-rule="evenodd" fill="#FFFFFF" d="M69.286,124.109c0.02-0.339,0.04-0.678,0.06-1.016
	c0.257-0.29,0.563-0.355,0.917-0.197c0.248,0.267,0.388,0.583,0.436,0.941c-0.04,0.363-0.193,0.667-0.476,0.902
	C69.682,124.871,69.427,124.575,69.286,124.109z"/>
<path fill-rule="evenodd" clip-rule="evenodd" fill="#FFFFFF" d="M70.223,124.739c-0.007-0.245-0.01-0.49-0.009-0.736
	c0.772-0.235,1.119-0.015,0.881,0.827c0,0-0.026,0.102-0.025,0.103C70.776,124.918,70.494,124.854,70.223,124.739z"/>
<path fill-rule="evenodd" clip-rule="evenodd" fill="#FFFFFF" d="M60.44,129.227c0.088,0.31,0.177,0.618,0.265,0.929
	c-0.73,2.287-2.527,2.603-4.566,2.47c-0.19-0.231-0.333-0.489-0.436-0.768c-0.199-0.416-0.536-0.711-0.896-0.991
	c-0.277-0.187-0.519-0.402-0.749-0.645c-0.215-0.285-0.39-0.584-0.547-0.902c-0.249-0.512-0.41-1.043-0.401-1.62
	c0.066-0.398,0.195-0.771,0.386-1.127c1.077-1.642,2.544-1.968,4.314-1.29C59.358,126.146,59.919,127.673,60.44,129.227z"/>
<path fill-rule="evenodd" clip-rule="evenodd" fill="#FFFFFF" d="M64.059,132.677c0.018,0.294,0.036,0.588,0.054,0.883
	c0.428,0.477,0.969,0.853,1.283,1.434c0.516,1.027,0.627,2.111,0.484,3.237c-0.354,1.38-0.756,2.716-2.631,2.49
	c-0.799-0.315-1.598-0.631-2.397-0.947C60.799,136.9,60.375,133.859,64.059,132.677z"/>
<path fill-rule="evenodd" clip-rule="evenodd" fill="#FFFFFF" d="M58.633,137.078c-0.706,2.071,1.173,4.361-0.537,6.348
	c-1.987,0.571-3.629,0.432-4.164-2.012c0.292-2.008-1.117-4.07,0.186-6.046c0.497-0.454,1.086-0.474,1.703-0.357
	C56.93,135.463,57.885,136.131,58.633,137.078z"/>
<path fill-rule="evenodd" clip-rule="evenodd" fill="#FFFFFF" d="M54.51,141.514c0.45,2.035,2.556,0.964,3.586,1.912
	c-0.08,0.76-0.159,1.519-0.239,2.278c-0.865,0.041-1.73,0.083-2.595,0.124c-0.86-0.528-1.908-0.836-2.291-1.934
	c-0.235-0.849-0.198-1.656,0.363-2.383C53.727,141.305,54.119,141.306,54.51,141.514z"/>
<path fill-rule="evenodd" clip-rule="evenodd" fill="#FFFFFF" d="M56.093,135.357c-0.563,0.083-1.126,0.166-1.69,0.249
	c-0.938,1.266-2.037,1.788-3.472,0.749c-0.006-0.553-0.013-1.104-0.02-1.657c0.719-1.289,2.091-1.54,3.288-2.073
	c0.191-0.016,0.382-0.027,0.574-0.039c0.16,0.104,0.319,0.212,0.479,0.318c0.072,0.73,0.308,1.361,1.04,1.686
	C56.479,134.911,56.413,135.167,56.093,135.357z"/>
<path fill-rule="evenodd" clip-rule="evenodd" fill="#FFFFFF" d="M56.093,135.357c0.069-0.255,0.135-0.512,0.199-0.768
	c1.089,0.54,4.764-1.353,2.342,2.488C57.33,137.179,56.178,137.056,56.093,135.357z"/>
<path fill-rule="evenodd" clip-rule="evenodd" fill="#FFFFFF" d="M56.152,131.908c0.004,0.24,0,0.479-0.013,0.718
	c-0.296,0.092-0.591,0.185-0.887,0.278c0,0,0.095-0.285,0.095-0.285l-0.207-0.376c0,0,0.229-0.364,0.229-0.365
	c-0.001-0.001,0.398-0.162,0.398-0.162C55.767,131.715,56.152,131.908,56.152,131.908z"/>
<path fill="#FFFFFF" d="M165.486,138.963c-1.843-3.126-3.661-6.269-5.592-9.339c-1.292-2.054-2.742-1.948-3.96,0.109
	c-2.049,3.461-4.034,6.958-6.395,11.043c1.485-0.106,2.024,0.022,2.298-0.189c4.484-3.485,6.678-3.543,11.744-0.218
	c0.657,0.432,1.359,0.622,1.995,0.115C166.152,140.025,165.76,139.426,165.486,138.963z M155.885,135.825
	c-1.084-1.537,0.908-2.987,1.771-4.898c1.646,1.649,2.529,3.041,2.757,4.879C158.803,136.441,156.571,136.799,155.885,135.825z"/>
<path fill-rule="evenodd" clip-rule="evenodd" fill="#FFFFFF" d="M71.189,112.582c2.346,2.127,2.931,5.019,3.444,7.942
	c-0.05,0.873-0.1,1.744-0.15,2.617c-2.275-2.431-3.31-5.798-5.985-7.927c-0.582-0.543-0.569-1.105-0.053-1.684
	c0.317-0.956,0.635-1.912,0.953-2.868C69.995,111.302,70.592,111.941,71.189,112.582z"/>
<path fill-rule="evenodd" clip-rule="evenodd" fill="#FFFFFF" d="M53.563,141.5c0.002,0.88,0.004,1.759,0.006,2.638
	c-0.558,0.784-1.379,0.854-2.236,0.829c-1.781-0.224-2.908-1.42-3.987-2.686c-0.233-0.329-0.396-0.694-0.511-1.08
	c-0.1-0.963-0.431-1.91-0.246-2.9c1.409-0.394,2.819-0.787,4.228-1.18C54.616,136.773,53.679,139.395,53.563,141.5z"/>
<path fill-rule="evenodd" clip-rule="evenodd" fill="#FFFFFF" d="M42.974,137.147c-0.171,0.147-0.368,0.2-0.59,0.158
	c-0.652,0.265-1.314,0.319-1.991,0.099c-1.163-0.93-1.387-2.301-1.719-3.625c-0.158-1.399,0.049-2.681,1.209-3.642
	c1.92-0.772,2.569,0.785,3.471,1.888c0.434,0.66,0.807,1.35,0.894,2.155c-0.012,0.566-0.151,1.112-0.332,1.646
	C43.739,136.363,43.393,136.78,42.974,137.147z"/>
<path fill-rule="evenodd" clip-rule="evenodd" fill="#FFFFFF" d="M54.479,132.889c-0.77,1.429-2.152,1.65-3.567,1.81
	c-0.579-0.075-1.157-0.151-1.736-0.227c-0.21-0.213-0.309-0.446-0.294-0.697c0.014-0.262,0.049-0.393,0.099-0.394
	c1.23-1.511,1.361-3.889,3.611-4.6c0.407,0.023,0.781,0.152,1.118,0.382c0.219,0.336,0.452,0.661,0.7,0.977l0.02,0.018
	c0.323,0.137,0.445,0.376,0.371,0.716c-0.045,0.277-0.13,0.547-0.243,0.803c-0.084,0.26-0.123,0.529-0.104,0.806
	C54.454,132.48,54.479,132.889,54.479,132.889z"/>
<path fill-rule="evenodd" clip-rule="evenodd" fill="#FFFFFF" d="M53.563,141.5c-1.33-1.199-0.012-4.059-2.745-4.379
	c0.053-0.253,0.091-0.509,0.113-0.767c1.157-0.249,2.314-0.499,3.472-0.748c-0.788,1.983,1.899,3.906,0.106,5.908
	C54.194,141.51,53.879,141.505,53.563,141.5z"/>
<path fill-rule="evenodd" clip-rule="evenodd" fill="#FFFFFF" d="M42.996,135.378c0.289-0.286,0.578-0.572,0.867-0.858
	c1.018-1.14,0.448-3.37,2.577-3.751c1.342,0.469,2.161,1.354,2.257,2.817c-0.017,0.438-0.104,0.859-0.269,1.266
	c-0.121,1.219-0.979,1.372-1.956,1.352C45.333,135.846,43.922,136.635,42.996,135.378z"/>
<path fill-rule="evenodd" clip-rule="evenodd" fill="#FFFFFF" d="M46.59,138.301c1.731,0.739,0.808,2.122,0.794,3.284
	c-1.226,0.813-2.124,0.263-2.923-0.702c-0.27-0.678-0.227-1.315,0.257-1.893C45.343,138.76,45.967,138.53,46.59,138.301z"/>
<path fill-rule="evenodd" clip-rule="evenodd" fill="#FFFFFF" d="M40.396,137.17c0.662,0.044,1.324,0.09,1.987,0.135
	c-1.717,0.952-3.534,1.521-5.521,1.433c-0.193-0.187-0.275-0.387-0.247-0.602c0.03-0.222,0.072-0.332,0.123-0.335
	c0.582-0.677,1.161-1.358,1.982-1.769C39.596,135.942,39.938,136.642,40.396,137.17z"/>
<path fill-rule="evenodd" clip-rule="evenodd" fill="#FFFFFF" d="M42.996,135.378c1.192,0.139,2.535-0.364,3.477,0.825
	c-1.044,0.769-2.227,1.021-3.499,0.944C42.981,136.558,42.989,135.968,42.996,135.378z"/>
<path fill-rule="evenodd" clip-rule="evenodd" fill="#FFFFFF" d="M36.935,137.98c-0.038,0.251-0.062,0.503-0.073,0.757
	c-0.304,0.058-0.607,0.115-0.911,0.174c-0.546-0.867-1.092-1.734-1.638-2.601c0.336-0.932,0.946-1.347,1.946-1.03
	C37.188,136.004,37.724,136.826,36.935,137.98z"/>
<path fill-rule="evenodd" clip-rule="evenodd" fill="#FFFFFF" d="M44.719,138.99c0.027,0.55,0.055,1.1,0.082,1.65
	c-0.111,0.535-0.439,0.847-0.975,0.944c-0.576-0.614-1.153-1.229-1.729-1.845C42.971,139.49,43.845,139.24,44.719,138.99z"/>
<path fill-rule="evenodd" clip-rule="evenodd" fill="#FFFFFF" d="M48.428,134.852c-0.047-0.389-0.095-0.777-0.143-1.165
	c0.28-0.299,0.567-0.292,0.86-0.021c0.003,0.269,0.013,0.537,0.029,0.806C48.941,134.627,48.692,134.754,48.428,134.852z"/>
<path fill-rule="evenodd" clip-rule="evenodd" fill="#FFFFFF" d="M63.249,140.721c1.085-0.552,1.682-1.417,1.701-2.653
	c0.431-0.321,0.826-0.281,1.184,0.119c0.52,0.907,0.353,1.757-0.213,2.573c-0.304,0.595-0.608,1.188-0.912,1.783
	c-0.309-0.063-0.618-0.127-0.927-0.19C63.805,141.809,63.527,141.265,63.249,140.721z"/>
<path fill-rule="evenodd" clip-rule="evenodd" fill="#FFFFFF" d="M51.031,101.304c0.851,0.082,1.702,0.164,2.553,0.245
	c0.556,0.639,0.879,1.389,1.065,2.209c0.116,0.852,0.313,1.727-0.589,2.322c-1.267,0.609-2.573,0.616-3.906,0.263
	c-0.657-0.244-1.158-0.649-1.374-1.345c-0.295-1.233,0.34-2.13,1.084-2.987C50.253,101.777,50.642,101.54,51.031,101.304z"/>
<path fill-rule="evenodd" clip-rule="evenodd" fill="#FFFFFF" d="M49.865,102.012c0.282,1.032-0.319,1.843-0.681,2.713
	c-0.307,0.399-0.636,0.4-0.984,0.055c-0.943-0.524-0.786-1.489-0.931-2.331C48.134,102.304,49,102.158,49.865,102.012z"/>
<path fill-rule="evenodd" clip-rule="evenodd" fill="#FFFFFF" d="M43.826,141.585c0.324-0.314,0.649-0.629,0.974-0.943
	c0.862,0.313,1.723,0.628,2.584,0.943l0,0.057c0.634,1.27,1.966,2.377,0.934,4.033c-1.162-0.228-2.324-0.455-3.487-0.683
	c-0.281-0.302-0.563-0.604-0.842-0.906C43.937,143.253,43.881,142.419,43.826,141.585z"/>
<path fill-rule="evenodd" clip-rule="evenodd" fill="#FFFFFF" d="M32.295,114.291c0.434-0.567,0.869-1.135,1.303-1.702
	c1.34,0.036,1.733,1.091,2.22,2.051c0.409,2.268,2.429,4.201,1.426,6.769c-1.12,1.25-2.153,1.507-2.878-0.339
	c-0.417-1.063-0.352-2.281-1.001-3.279c-0.042-0.823-0.333-1.502-1.102-1.905C32.274,115.353,32.285,114.821,32.295,114.291z"/>
<path fill-rule="evenodd" clip-rule="evenodd" fill="#FFFFFF" d="M68.445,113.529c0.018,0.562,0.035,1.123,0.053,1.685
	c-0.597,0.291-1.195,0.582-1.793,0.874c-0.002-0.284-0.004-0.567-0.004-0.85c-0.415-0.427-0.821-0.861-1.105-1.394
	c-0.296-1.273-1.631-2.371-0.67-3.862c0.284-0.291,0.567-0.58,0.85-0.871C66.666,110.584,67.555,112.057,68.445,113.529z"/>
<path fill-rule="evenodd" clip-rule="evenodd" fill="#FFFFFF" d="M44.786,107.203c0.573,0.044,1.146,0.088,1.719,0.132
	c1.45,0.56,2.693,1.472,3.974,2.33c0.96,0.842,1.808,1.742,1.608,3.174c-0.863,2.13-2.395,2.978-4.657,2.427
	c-1.279-2.611-3.359-4.846-3.733-7.889C44.011,107.015,44.375,106.958,44.786,107.203z"/>
<path fill-rule="evenodd" clip-rule="evenodd" fill="#FFFFFF" d="M49.937,109.999c-1.914,0.104-2.562-1.423-3.432-2.665
	c0.293-0.31,0.586-0.62,0.88-0.93c0.289-0.305,0.578-0.611,0.866-0.917c1.177,1.11,3.121,1.59,3.061,3.72
	C51.067,109.842,50.757,110.365,49.937,109.999z"/>
<path fill-rule="evenodd" clip-rule="evenodd" fill="#FFFFFF" d="M44.786,107.203c-0.295,0.046-0.59,0.093-0.884,0.138
	c-0.87,0.728-1.762,0.731-2.676,0.085c-0.745-0.898-0.631-1.786,0.036-2.666l-0.09-0.231
	C42.959,104.632,43.898,105.883,44.786,107.203z"/>
<path fill-rule="evenodd" clip-rule="evenodd" fill="#FFFFFF" d="M50.911,109.068c-0.633-1.382-2.625-1.754-2.66-3.58
	c0.006-0.238-0.011-0.475-0.051-0.709c0.327-0.018,0.655-0.036,0.983-0.054c0.31,0.276,0.621,0.553,0.931,0.829
	c1.429,0.709,3.032,1.256,3.085,3.268c-0.017,0.417-0.139,0.801-0.362,1.153C51.839,110.431,51.321,109.865,50.911,109.068z"/>
<path fill-rule="evenodd" clip-rule="evenodd" fill="#FFFFFF" d="M35.899,135.499c-0.529,0.271-1.058,0.54-1.586,0.811
	c-2.128-2.534-3.091-5.563-3.712-8.739c0.038-1.498,0.076-2.996,0.114-4.494c1.33-0.059,1.743,1.215,2.628,1.803
	c1.652-0.225,1.439,1.021,1.578,1.99c-0.672,1.755,0.314,3.277,0.707,4.884C35.229,133.035,36.588,134.195,35.899,135.499z"/>
<path fill-rule="evenodd" clip-rule="evenodd" fill="#FFFFFF" d="M34.23,127.514c-0.072-0.953,0.16-2.01-0.887-2.635
	c-0.031-1.112-0.063-2.224-0.095-3.333c0.038-1.25,0.077-2.502,0.116-3.755c1.891,0.444,0.302,4.319,3.462,3.511
	c0.331,0.186,0.593,0.442,0.801,0.76c0.28,0.504,0.442,1.041,0.448,1.623c-0.071,0.382-0.21,0.736-0.411,1.068
	c-0.819,1.022-0.794,2.685-2.36,3.15C34.898,127.909,34.54,127.778,34.23,127.514z"/>
<path fill-rule="evenodd" clip-rule="evenodd" fill="#FFFFFF" d="M65.921,140.76c-0.056-0.9-0.111-1.802-0.167-2.703
	c0.862-0.817,1.742-0.63,2.629-0.044l0.239,0.105C68.521,139.816,67.692,140.77,65.921,140.76z"/>
<path fill-rule="evenodd" clip-rule="evenodd" fill="#FFFFFF" d="M59.688,102.887c-0.058,0.328-0.116,0.657-0.174,0.985
	c-0.659,0.635-1.446,0.794-2.323,0.632c-0.639-0.18-1.125-0.542-1.386-1.171c-0.076-0.433,0.04-0.813,0.32-1.147
	C57.396,101.998,58.678,101.754,59.688,102.887z"/>
<path fill-rule="evenodd" clip-rule="evenodd" fill="#FFFFFF" d="M56.126,102.186c-0.014,0.231-0.028,0.463-0.042,0.695
	c-0.532,1.098-1.147,1.955-2.444,0.848c-0.019-0.726-0.039-1.453-0.056-2.179C54.432,101.761,55.279,101.974,56.126,102.186z"/>
<path fill-rule="evenodd" clip-rule="evenodd" fill="#FFFFFF" d="M70.187,123.145c-0.28-0.016-0.561-0.033-0.84-0.051
	c-0.011-0.271-0.02-0.542-0.024-0.814c0.072-0.513,0.594-0.592,0.874-0.905c0.857,0.3,1.416,0.898,1.734,1.735
	C71.36,123.642,70.778,123.64,70.187,123.145z"/>
<path fill-rule="evenodd" clip-rule="evenodd" fill="#FFFFFF" d="M70.187,123.145c0.582-0.012,1.164-0.023,1.745-0.035
	c0.042,0.729-0.066,1.386-0.836,1.721c-0.294-0.276-0.588-0.552-0.882-0.827C70.206,123.717,70.197,123.431,70.187,123.145z"/>
<path fill-rule="evenodd" clip-rule="evenodd" fill="#FFFFFF" d="M67.585,117.902c-0.291-0.297-0.582-0.594-0.872-0.891
	C67.106,117.208,68.347,116.575,67.585,117.902z"/>
<path fill-rule="evenodd" clip-rule="evenodd" fill="#FFFFFF" d="M69.331,120.486c-0.294-0.294-0.589-0.589-0.883-0.883
	C68.742,119.897,69.037,120.192,69.331,120.486z"/>
<path fill-rule="evenodd" clip-rule="evenodd" fill="#FFFFFF" d="M70.196,121.374c-0.292,0.302-0.583,0.603-0.874,0.904
	c0,0,0-0.025,0-0.025c-0.229-0.293-0.226-0.584,0.007-0.874c0,0-0.007-0.058-0.007-0.059
	C69.614,121.348,69.904,121.365,70.196,121.374z"/>
<path fill-rule="evenodd" clip-rule="evenodd" fill="#FFFFFF" d="M68.457,119.614c-0.293-0.292-0.586-0.584-0.879-0.878
	C67.871,119.029,68.164,119.321,68.457,119.614z"/>
<path fill-rule="evenodd" clip-rule="evenodd" fill="#FFFFFF" d="M55.292,118.752c0.025,0.96-0.155,1.991,0.875,2.616
	c-0.217,2.537-3.079,2.225-4.138,3.857c-2.116,0.817-3.409,2.878-5.534,3.69c-0.642,0.146-1.265,0.098-1.869-0.171
	c-0.94-0.659-1.421-1.518-1.167-2.691c0.865-1.217,1.833-2.38,2.205-3.883c0.26-0.497,0.617-0.908,1.08-1.222
	c0.602-0.355,1.237-0.664,1.768-1.142c0.253-0.261,0.529-0.491,0.816-0.716c0.304-0.229,0.626-0.419,0.965-0.591
	c1.093-0.517,2.232-0.766,3.443-0.622C54.352,117.997,54.865,118.298,55.292,118.752z"/>
<path fill-rule="evenodd" clip-rule="evenodd" fill="#FFFFFF" d="M51.774,124.864c0.222-2.728,3.234-1.948,4.393-3.496
	c0.705,0.011,1.357,0.139,1.758,0.81c0.649,0.91,1.681,1.264,2.596,1.788l0.062,0.052c-0.07,0.578-0.142,1.156-0.213,1.735
	c-0.843,0.771-1.702,0.677-2.57,0.044c-1.802-0.377-3.161,0.355-4.271,1.709c-0.332,0.299-0.692,0.354-1.087,0.128
	C51.74,126.826,51.162,125.988,51.774,124.864z"/>
<path fill-rule="evenodd" clip-rule="evenodd" fill="#FFFFFF" d="M60.521,123.966c-1.996,1.047-2.491-0.086-2.596-1.787
	C59.16,122.237,60.492,122.156,60.521,123.966z"/>
<path fill-rule="evenodd" clip-rule="evenodd" fill="#FFFFFF" d="M55.292,118.752c-0.585-0.006-1.17-0.012-1.756-0.018
	c-0.513-0.521-0.532-1.106-0.227-1.735c0.359-0.3,0.731-0.314,1.114-0.044l-0.01,0.03c0.3,0.305,0.816,0.396,0.904,0.912
	C55.309,118.182,55.3,118.467,55.292,118.752z"/>
<path fill-rule="evenodd" clip-rule="evenodd" fill="#FFFFFF" d="M55.318,117.897c-0.301-0.304-0.603-0.608-0.904-0.912
	C54.814,117.191,56.09,116.53,55.318,117.897z"/>
<path fill-rule="evenodd" clip-rule="evenodd" fill="#FFFFFF" d="M54.424,116.955c-0.296,0.013-0.592,0.025-0.889,0.038
	c-0.454,0.296-0.802,0.202-1.046-0.283c0.39-1.115,1.096-1.266,2.047-0.674c0,0,0.024-0.088,0.024-0.089
	C54.515,116.282,54.469,116.618,54.424,116.955z"/>
<path fill-rule="evenodd" clip-rule="evenodd" fill="#FFFFFF" d="M68.383,138.013c-0.876,0.015-1.752,0.029-2.628,0.044
	c-0.269,0.002-0.537,0.006-0.805,0.011c-0.002-1.178-0.005-2.357-0.008-3.537c0.153-0.119,0.306-0.238,0.459-0.358
	c0.156,0.114,0.312,0.231,0.468,0.348C66.707,135.684,67.545,136.848,68.383,138.013z"/>
<path fill-rule="evenodd" clip-rule="evenodd" fill="#FFFFFF" d="M64.942,134.53c-0.277-0.323-0.554-0.646-0.83-0.97
	c0.258,0.042,0.517,0.071,0.778,0.086c0.224,0.186,0.305,0.379,0.243,0.579c-0.063,0.203-0.129,0.305-0.2,0.305H64.942z"/>
<path fill-rule="evenodd" clip-rule="evenodd" fill="#FFFFFF" d="M64.933,134.53c-0.014-0.295-0.027-0.589-0.042-0.884
	c0.325,0.291,0.651,0.582,0.978,0.873C65.557,134.522,65.245,134.526,64.933,134.53z"/>
<path fill-rule="evenodd" clip-rule="evenodd" fill="#FFFFFF" d="M66.614,113.381c0.029,0.619,0.059,1.238,0.087,1.857
	c-0.912-0.001-1.824-0.004-2.737-0.006c0.083-0.869,0.166-1.738,0.249-2.607C65.242,112.15,65.835,113.059,66.614,113.381z"/>
<path fill-rule="evenodd" clip-rule="evenodd" fill="#FFFFFF" d="M69.33,121.38c0,0.291-0.002,0.582-0.007,0.874
	C68.711,121.957,68.654,121.666,69.33,121.38z"/>
<path fill-rule="evenodd" clip-rule="evenodd" fill="#FFFFFF" d="M57.8,125.797c0.857-0.015,1.713-0.029,2.57-0.044
	c0.024,1.157,0.047,2.315,0.07,3.474C59.565,128.079,58.086,127.397,57.8,125.797z"/>
<path fill-rule="evenodd" clip-rule="evenodd" fill="#FFFFFF" d="M54.536,116.036c-0.721,0.063-1.42,0.167-1.792,0.913
	c-0.466,0.937-1.473,1.007-2.266,1.421c-0.362,0.067-0.724,0.058-1.085-0.017c-0.523-0.178-0.961-0.493-1.36-0.868
	c-0.387-0.374-0.706-0.798-0.909-1.303c-0.006-0.175-0.01-0.353-0.015-0.528c0.104-0.141,0.209-0.284,0.314-0.426
	c1.545-0.77,3.32-1.157,4.42-2.666c1.12-0.446,1.909,0.013,2.532,0.926C54.428,114.337,54.482,115.187,54.536,116.036z"/>
<path fill-rule="evenodd" clip-rule="evenodd" fill="#FFFFFF" d="M52.656,109.832c-0.011-0.251-0.01-0.502,0.002-0.753
	c0.71-0.856,1.622-1.448,2.585-1.981c1.727-0.138,2.33,1.117,2.94,2.369c0.085,0.393,0.148,0.789,0.197,1.189
	c-0.096,1.422-0.596,2.38-2.275,1.982c-0.268-0.033-0.535-0.062-0.803-0.086C53.837,112.213,52.915,111.345,52.656,109.832z"/>
<path fill-rule="evenodd" clip-rule="evenodd" fill="#FFFFFF" d="M52.656,109.832c0.882,0.907,1.764,1.813,2.646,2.72
	c-0.31,0.312-0.619,0.624-0.928,0.936c-1.028,0.194-1.725-0.516-2.532-0.925c-0.635-0.855-1.271-1.71-1.906-2.564
	c0.325-0.31,0.649-0.62,0.974-0.931C51.493,109.323,52.074,109.578,52.656,109.832z"/>
<path fill-rule="evenodd" clip-rule="evenodd" fill="#FFFFFF" d="M56.106,112.638c1.174-0.506,1.813-1.379,1.837-2.675
	c0.282-0.213,0.563-0.203,0.844,0.001c0.32,1.13,0.639,2.258,0.959,3.386c-0.488,0.142-0.977,0.286-1.462,0.428
	C57.127,114.229,56.642,113.385,56.106,112.638z"/>
<path fill-rule="evenodd" clip-rule="evenodd" fill="#FFFFFF" d="M58.787,109.965c-0.281-0.001-0.563-0.001-0.844-0.001h-0.005
	c-0.619-1.292-1.057-2.605-0.481-4.04c1.276-1.397,2.021,0.109,2.962,0.545c0.338,0.873,0.675,1.745,1.013,2.618
	C61.223,111.403,59.648,109.61,58.787,109.965z"/>
<path fill-rule="evenodd" clip-rule="evenodd" fill="#FFFFFF" d="M60.418,106.469c-0.838-0.292-1.677-0.583-2.517-0.875
	c-0.29,0.293-0.643,0.41-1.051,0.375c-1.417-0.819-0.842-1.496,0.152-2.143c0.838,0.015,1.675,0.031,2.512,0.047
	C59.816,104.738,60.117,105.604,60.418,106.469z"/>
<path fill-rule="evenodd" clip-rule="evenodd" fill="#FFFFFF" d="M66.614,113.381c-0.8-0.252-1.601-0.504-2.401-0.756
	c-0.021-0.914-0.042-1.828-0.063-2.743c0.259,0.033,0.517,0.067,0.776,0.101C64.796,111.459,66.126,112.211,66.614,113.381z"/>
<path fill-rule="evenodd" clip-rule="evenodd" fill="#FFFFFF" d="M48.319,145.675c-0.312-1.346-0.623-2.69-0.934-4.034
	c1.166,0.853,2.332,1.705,3.498,2.557c0.471,0.464,1.419,0.687,0.849,1.678C50.594,145.808,49.457,145.742,48.319,145.675z"/>
<path fill-rule="evenodd" clip-rule="evenodd" fill="#FFFFFF" d="M51.732,145.875c-0.283-0.56-0.566-1.119-0.849-1.678
	c0.895-0.02,1.79-0.038,2.686-0.059c0.564,0.563,1.129,1.127,1.694,1.689C54.085,145.844,52.909,145.859,51.732,145.875z"/>
<path fill-rule="evenodd" clip-rule="evenodd" fill="#FFFFFF" d="M52.659,127.491c0.291,0.004,0.581,0.009,0.871,0.015
	c0.004,0.293,0.008,0.587,0.012,0.88c0.242,0.198,0.319,0.393,0.232,0.582c-0.086,0.188-0.17,0.281-0.254,0.281
	c-2.93,0.015-1.624,4.223-4.373,4.417c-0.287-0.002-0.574,0.005-0.86,0.021c-0.589-0.886-1.18-1.77-1.77-2.655
	c-0.454-1.013,0.091-1.697,0.768-2.337C48.944,127.708,50.405,125.823,52.659,127.491z"/>
<path fill-rule="evenodd" clip-rule="evenodd" fill="#FFFFFF" d="M54.435,131.025c0-0.29-0.001-0.579-0.005-0.868
	c0.869,0.294,3.049-0.704,1.723,1.751h0.023c-0.255-0.245-0.563-0.355-0.915-0.349C54.911,131.496,54.636,131.316,54.435,131.025z"
	/>
<path fill-rule="evenodd" clip-rule="evenodd" fill="#FFFFFF" d="M53.519,129.249c0.01-0.287,0.018-0.575,0.022-0.863
	c0.285,0.308,0.571,0.615,0.855,0.922c-0.299,0.231-0.587,0.218-0.863-0.042L53.519,129.249z"/>
<path fill-rule="evenodd" clip-rule="evenodd" fill="#FFFFFF" d="M53.534,129.266c0.288,0.001,0.576,0.015,0.863,0.042
	c0.013,0.277,0.017,0.555,0.012,0.832C54.118,129.849,53.826,129.557,53.534,129.266z"/>
<path fill-rule="evenodd" clip-rule="evenodd" fill="#FFFFFF" d="M55.291,131.902c0.008,0.239,0.027,0.479,0.056,0.717
	c-0.29,0.09-0.579,0.18-0.869,0.27l-0.146-0.27c-0.242-0.316-0.229-0.621,0.037-0.916c0.171-0.049,0.342-0.097,0.514-0.146
	C55.019,131.672,55.155,131.787,55.291,131.902z"/>
<path fill-rule="evenodd" clip-rule="evenodd" fill="#FFFFFF" d="M55.285,131.021c0.297,0.296,0.594,0.592,0.891,0.888
	c-0.295-0.002-0.589-0.004-0.884-0.006l0.011-0.021c-0.294-0.186-0.395-0.375-0.302-0.567
	C55.093,131.119,55.188,131.021,55.285,131.021z"/>
<path fill-rule="evenodd" clip-rule="evenodd" fill="#FFFFFF" d="M35.315,109.865c0.508-0.577,1.017-1.155,1.526-1.731
	c0.88-0.631,1.623-0.36,2.305,0.342c0.677,0.886,1.079,1.845,0.763,2.987c-0.534,1.011-1.456,1.361-2.517,1.468
	c-0.394-0.048-0.729-0.221-1.003-0.508C35.741,111.695,35.509,110.788,35.315,109.865z"/>
<path fill-rule="evenodd" clip-rule="evenodd" fill="#FFFFFF" d="M38.668,109.105c-0.392-0.734-1.082-0.906-1.828-0.971
	c1.135-1.569,2.625-2.671,4.421-3.374c0.053,0.844,0.107,1.688,0.16,2.532c-0.062,0.197-0.123,0.395-0.182,0.593
	C40.605,108.759,39.897,109.483,38.668,109.105z"/>
<path fill-rule="evenodd" clip-rule="evenodd" fill="#FFFFFF" d="M35.315,109.865c0.507,0.608,1.013,1.217,1.52,1.825
	c-0.712,0.854-0.521,2.296-1.806,2.778c-0.477-0.625-0.954-1.252-1.431-1.878C33.755,111.419,34.569,110.664,35.315,109.865z"/>
<path fill-rule="evenodd" clip-rule="evenodd" fill="#FFFFFF" d="M43.889,125.758c0.291,0.877,0.582,1.753,0.873,2.629
	c-0.228,1.612-0.553,3.187-1.775,4.398c-1.08-0.675-1.233-2.272-2.625-2.637c-0.835,0.291-1.067-0.248-1.228-0.89
	c0.027-1.249,0.186-2.488,0.314-3.732c0.261-1.367,0.87-2.459,2.308-2.886c0.448-0.058,0.876,0.01,1.288,0.197
	C43.886,123.648,44.457,124.539,43.889,125.758z"/>
<path fill-rule="evenodd" clip-rule="evenodd" fill="#FFFFFF" d="M39.497,129.272c0.289,0.292,0.577,0.584,0.866,0.876
	c-0.599,1.097-1.003,2.243-0.875,3.521c-0.864,0.487-1.588,0.07-2.314-0.351c-0.503-0.381-0.861-0.871-1.077-1.463
	c0.049-1.533-2.323-2.508-1.012-4.336c1.502-0.708,0.18-3.544,2.653-3.518c0.757,0.394,1.15,1.08,1.481,1.82
	C39.379,126.966,39.913,128.081,39.497,129.272z"/>
<path fill-rule="evenodd" clip-rule="evenodd" fill="#FFFFFF" d="M42.987,132.785c0.045-1.688-0.281-3.523,1.775-4.398
	c0.583-0.001,1.167-0.003,1.75-0.004c0.907-0.317,1.11,0.067,0.882,0.883c-0.292,0.589-0.585,1.177-0.878,1.766
	c-1.488,0.704-0.157,3.552-2.653,3.488C43.571,133.941,43.279,133.363,42.987,132.785z"/>
<path fill-rule="evenodd" clip-rule="evenodd" fill="#FFFFFF" d="M37.725,132.777c0.587,0.297,1.175,0.595,1.762,0.892
	c0.616,1.085,1,2.231,0.909,3.501c-0.599-0.29-1.198-0.579-1.797-0.868C36.334,135.615,36.804,134.253,37.725,132.777z"/>
<path fill-rule="evenodd" clip-rule="evenodd" fill="#FFFFFF" d="M55.285,131.021c0.003,0.287,0.009,0.574,0.017,0.861
	c-0.304,0.008-0.607,0.017-0.91,0.025c-0.263,0.305-0.523,0.303-0.78-0.008c0.274-0.291,0.549-0.583,0.823-0.874
	C54.718,131.026,55.001,131.025,55.285,131.021z"/>
<path fill-rule="evenodd" clip-rule="evenodd" fill="#FFFFFF" d="M53.611,131.899c0.26-0.006,0.521-0.003,0.78,0.008
	c0.009,0.241-0.01,0.479-0.059,0.713C54.092,132.379,53.852,132.14,53.611,131.899z"/>
<path fill-rule="evenodd" clip-rule="evenodd" fill="#FFFFFF" d="M37.725,132.777c0.133,1.214-0.392,2.592,0.874,3.524
	c-0.01,1.101-0.525,1.7-1.665,1.679c-0.345-0.828-0.689-1.655-1.035-2.482c-0.258-1.204-1.935-2.1-0.787-3.61
	c0.592-0.535,1.172-0.496,1.74,0.036C37.144,132.209,37.435,132.493,37.725,132.777z"/>
<path fill-rule="evenodd" clip-rule="evenodd" fill="#FFFFFF" d="M55.29,107.341c-0.089,1.772-1.362,1.751-2.631,1.738
	c-0.849-1.175-1.698-2.35-2.545-3.525c1.408,0.005,2.815,0.011,4.223,0.017c0.318,0.173,0.568,0.415,0.744,0.734
	C55.229,106.634,55.298,106.979,55.29,107.341z"/>
<path fill-rule="evenodd" clip-rule="evenodd" fill="#FFFFFF" d="M54.478,106.407c-0.027-0.282-0.074-0.561-0.142-0.836
	c-0.233-0.614-0.466-1.227-0.697-1.842c0.816-0.283,1.631-0.565,2.445-0.848c0.307,0.314,0.613,0.629,0.92,0.944
	c-0.018,0.597-0.969,1.198,0.005,1.792C56.76,107.783,55.526,106.797,54.478,106.407z"/>
<path fill-rule="evenodd" clip-rule="evenodd" fill="#FFFFFF" d="M38.591,125.751c-0.692-0.384-0.837-1.035-0.854-1.749l0-0.003
	c0.639-1.045-0.364-1.272-0.871-1.746c-0.013-0.316-0.026-0.633-0.04-0.951c0.313-2.52-2.43-4.235-1.797-6.836
	c0.073-1.268,0.602-2.241,1.805-2.776c0.054,0.287,0.108,0.575,0.163,0.862c0.872,0.426,1.666,0.942,2.125,1.843
	c0.165,0.34,0.285,0.699,0.378,1.064c0.274,1.428,0.68,2.822,1.195,4.179c0.14,0.308,0.267,0.624,0.402,0.932
	c0.307,0.587,0.751,1.082,1.132,1.622c0.158,0.318,0.143,0.623-0.068,0.914c-1.181,0.479-1.779,1.358-1.805,2.628
	C39.774,126.272,39.185,126.276,38.591,125.751z"/>
<path fill-rule="evenodd" clip-rule="evenodd" fill="#FFFFFF" d="M41.422,107.292c0.826,0.017,1.653,0.032,2.479,0.048
	c1.327,2.561,4.022,4.51,3.521,7.887c0,0-0.032,0.01-0.032,0.01c-2.057,0.475-2.643-1.552-3.972-2.323
	c-1.264-1.651-2.753-3.218-2.193-5.585L41.422,107.292z"/>
<path fill-rule="evenodd" clip-rule="evenodd" fill="#FFFFFF" d="M36.853,131.924c-0.58-0.012-1.16-0.023-1.74-0.036
	c-0.419-1.434-3.007-2.429-0.882-4.374c0.285,0.002,0.57,0.004,0.854,0.006C35.197,129.179,37.441,129.984,36.853,131.924z"/>
<path fill-rule="evenodd" clip-rule="evenodd" fill="#FFFFFF" d="M36.867,122.253c1.131,0.163,2.202,0.354,0.871,1.746
	C37.448,123.417,37.157,122.835,36.867,122.253z"/>
<path fill-rule="evenodd" clip-rule="evenodd" fill="#FFFFFF" d="M47.438,121.347c-0.309,0.3-0.618,0.6-0.927,0.9
	c-0.89,0.347-1.788,0.656-2.769,0.56c-0.373-0.112-0.71-0.291-1.011-0.539c-0.212-0.335-0.315-0.702-0.329-1.096
	c0.03-0.39,0.128-0.764,0.271-1.127c0.731-1.378,1.459-2.77,3.354-2.716c0.564,0.107,1.037,0.394,1.464,0.766
	c0.406,0.358,0.756,0.767,1.027,1.237c0.119,0.333,0.136,0.676,0.069,1.022C48.33,120.827,47.791,120.98,47.438,121.347z"/>
<path fill-rule="evenodd" clip-rule="evenodd" fill="#FFFFFF" d="M47.394,129.266c-0.294-0.294-0.588-0.588-0.882-0.883
	c1.668-1.302,2.426-3.963,5.262-3.519c0.295,0.876,0.59,1.751,0.885,2.627C50.64,127.301,49.091,128.502,47.394,129.266z"/>
<path fill-rule="evenodd" clip-rule="evenodd" fill="#FFFFFF" d="M43.007,122.245c1.167-0.039,2.336-0.853,3.504,0.002
	c-0.798,1.227,0.628,4.116-2.622,3.511c-0.297-0.886-0.595-1.773-0.893-2.66c-0.265-0.192-0.352-0.384-0.261-0.572
	C42.826,122.338,42.916,122.245,43.007,122.245z"/>
<path fill-rule="evenodd" clip-rule="evenodd" fill="#FFFFFF" d="M50.037,117.85c0.902-0.3,1.803-0.6,2.706-0.9
	c0.265,0,0.529,0.015,0.792,0.043c0,0.58,0.001,1.162,0.002,1.742c-1.278-0.135-2.419,0.28-3.517,0.873
	C49.478,119.016,49.516,118.43,50.037,117.85z"/>
<path fill-rule="evenodd" clip-rule="evenodd" fill="#FFFFFF" d="M50.037,117.85c-0.005,0.585-0.011,1.172-0.017,1.757
	c-0.295,0.015-0.59,0.032-0.885,0.047c-0.154-0.083-0.309-0.166-0.464-0.249c-0.28-0.219-0.522-0.474-0.731-0.763
	c-0.053-0.366,0.031-0.698,0.249-0.998c0.362-0.154,0.675-0.077,0.947,0.197C49.436,117.845,49.737,117.847,50.037,117.85z"/>
<path fill-rule="evenodd" clip-rule="evenodd" fill="#FFFFFF" d="M47.438,121.347c0.276-0.303,0.551-0.605,0.827-0.908
	c0.332-0.382,0.62-0.352,0.864,0.092C48.78,121.248,48.133,121.348,47.438,121.347z"/>
<path fill-rule="evenodd" clip-rule="evenodd" fill="#FFFFFF" d="M49.128,120.531c-0.288-0.027-0.576-0.059-0.864-0.091
	c0-0.254-0.003-0.507-0.008-0.759c0.255-0.388,0.55-0.402,0.879-0.095c0,0-0.001,0.067-0.001,0.068
	C49.143,119.946,49.14,120.238,49.128,120.531z"/>
<path fill-rule="evenodd" clip-rule="evenodd" fill="#FFFFFF" d="M43.914,112.538c1.883-0.032,1.89,2.35,3.477,2.701
	c0,0.289,0.002,0.578,0.007,0.867c0.121,0.17,0.241,0.341,0.362,0.511c-0.146,0.408-0.426,0.679-0.839,0.812
	c-1.559,0.122-2.845-0.223-3.321-1.95C43.639,114.492,43.591,113.495,43.914,112.538z"/>
<path fill-rule="evenodd" clip-rule="evenodd" fill="#FFFFFF" d="M49.136,117.842c-0.289,0.014-0.577,0.019-0.867,0.015
	c-0.153,0.125-0.306,0.251-0.46,0.376c-0.181-0.083-0.361-0.166-0.542-0.249c-0.24-0.371-0.213-0.708,0.122-1.008l0,0
	c0.276-0.302,0.566-0.314,0.867-0.038C48.55,117.241,48.842,117.542,49.136,117.842z"/>
<path fill-rule="evenodd" clip-rule="evenodd" fill="#FFFFFF" d="M48.257,116.94c-0.289,0.021-0.578,0.034-0.867,0.038
	c0.003-0.292,0.006-0.582,0.008-0.873C47.684,116.383,47.97,116.662,48.257,116.94z"/>
<path fill-rule="evenodd" clip-rule="evenodd" fill="#FFFFFF" d="M54.478,106.407c0.929,0.008,1.914,0.192,2.532-0.791
	c0.297-0.008,0.595-0.016,0.892-0.023c0.012,1.457,0.023,2.913,0.035,4.37c-0.882-0.875-1.765-1.749-2.647-2.623
	C55.019,107.029,54.749,106.718,54.478,106.407z"/>
<path fill-rule="evenodd" clip-rule="evenodd" fill="#FFFFFF" d="M43.914,112.538c0.457,0.902,0.53,1.799-0.034,2.688
	c-0.259,0.876-0.893,1.259-1.76,1.334c-1.26-0.2-2.038-1.065-2.762-2.007c-0.31-0.936-0.269-1.879-0.049-2.827
	c-0.214-0.873-0.428-1.748-0.641-2.621c0.853-0.591,1.706-1.184,2.558-1.775C42.122,109.067,43.018,110.802,43.914,112.538z"/>
<path fill-rule="evenodd" clip-rule="evenodd" fill="#FFFFFF" d="M39.309,111.726c0.812,0.818,0.711,1.703,0.194,2.618
	c-0.297,0.322-0.602,0.314-0.913,0.021c-0.763-0.4-1.389-0.921-1.594-1.812C37.769,112.277,38.539,112.001,39.309,111.726z"/>
<path fill-rule="evenodd" clip-rule="evenodd" fill="#FFFFFF" d="M38.591,125.751c0.589-0.005,1.178-0.011,1.768-0.016
	c-0.106,1.223,0.426,2.602-0.862,3.537C38.888,128.178,38.481,127.03,38.591,125.751z"/>
<path fill-rule="evenodd" clip-rule="evenodd" fill="#FFFFFF" d="M43.007,122.245c0.008,0.285,0.005,0.57-0.011,0.854l-0.417,0.013
	c0,0-0.417-0.005-0.417-0.005c-0.032-0.285-0.04-0.57-0.023-0.856c0.144-0.11,0.287-0.22,0.43-0.33
	c0.146,0.105,0.292,0.212,0.437,0.32L43.007,122.245z"/>
<path fill-rule="evenodd" clip-rule="evenodd" fill="#FFFFFF" d="M40.376,120.491c-1.3-1.519-1.687-3.342-1.757-5.27
	c1.812-0.51,1.818,1.448,2.82,2.051c0.218,0.304,0.4,0.63,0.56,0.969c0.245,0.512,0.433,1.041,0.483,1.613
	c-0.091,0.376-0.294,0.683-0.59,0.932C41.325,121.011,40.805,120.987,40.376,120.491z"/>
<path fill-rule="evenodd" clip-rule="evenodd" fill="#FFFFFF" d="M41.258,117.904c-0.879-0.894-1.759-1.788-2.64-2.683
	c-0.006-0.285-0.015-0.571-0.027-0.856c0.304-0.007,0.607-0.014,0.912-0.021c1.399-0.183,1.704,1.218,2.584,1.786
	C42.554,117.068,42.015,117.537,41.258,117.904z"/>
<path fill-rule="evenodd" clip-rule="evenodd" fill="#FFFFFF" d="M40.376,120.491c0.585-0.014,1.171-0.028,1.756-0.042
	c0.111,0.14,0.222,0.28,0.333,0.421c-0.043,0.173-0.087,0.347-0.13,0.521c-0.143,0.108-0.287,0.215-0.43,0.323
	c-0.541,0.082-1.065,0.083-1.503-0.321C40.394,121.093,40.385,120.792,40.376,120.491z"/>
<path fill-rule="evenodd" clip-rule="evenodd" fill="#FFFFFF" d="M40.403,121.393c0.577-0.008,1.155-0.016,1.732-0.023
	c0.243,0.201,0.325,0.403,0.248,0.607c-0.078,0.206-0.157,0.309-0.236,0.309l-0.007-0.035
	C41.431,122.226,40.766,122.116,40.403,121.393z"/>
<path fill-rule="evenodd" clip-rule="evenodd" fill="#FFFFFF" d="M41.258,117.904c0.277-0.591,0.554-1.183,0.83-1.774
	c0.598-0.302,1.194-0.603,1.792-0.904c0.988,0.949,1.864,2.12,3.509,1.752c0.003,0.296,0.007,0.594,0.01,0.89
	c-0.28,0.373-0.561,0.357-0.845,0.004c-1.992-0.223-2.364,1.751-3.553,2.618c-0.292,0.435-0.584,0.414-0.876,0
	c0,0,0.007-0.04,0.007-0.041c-0.004-0.285-0.009-0.568-0.015-0.852c-0.335-0.283-0.585-0.645-0.878-0.966
	C41.251,118.389,41.258,118.147,41.258,117.904z"/>
<path fill-rule="evenodd" clip-rule="evenodd" fill="#FFFFFF" d="M49.136,119.585c-0.293,0.032-0.586,0.063-0.879,0.094
	c-0.28-0.313-0.561-0.626-0.841-0.941c0.141-0.133,0.282-0.267,0.423-0.401c0.143,0.131,0.286,0.264,0.428,0.397
	C48.558,119.018,48.847,119.302,49.136,119.585z"/>
<path fill-rule="evenodd" clip-rule="evenodd" fill="#FFFFFF" d="M46.555,117.872c0.281-0.009,0.563-0.01,0.845-0.004l-0.009-0.011
	c0.226,0.195,0.3,0.39,0.226,0.585s-0.15,0.293-0.225,0.293l0.025,0.003C47.129,118.45,46.842,118.161,46.555,117.872z"/>
<path fill-rule="evenodd" clip-rule="evenodd" fill="#FFFFFF" d="M42.146,122.285c-0.004-0.305-0.008-0.61-0.011-0.916l-0.009-0.002
	c0.292-0.303,0.585-0.319,0.877,0c0.002,0.291,0.003,0.582,0.003,0.873C42.718,122.245,42.432,122.259,42.146,122.285z"/>
<path fill-rule="evenodd" clip-rule="evenodd" fill="#FFFFFF" d="M43.003,121.367c-0.292,0-0.585,0-0.877,0c0-0.292,0-0.585,0-0.877
	c0.292,0,0.585,0,0.877,0C43.003,120.783,43.004,121.075,43.003,121.367z"/>
<path fill-rule="evenodd" clip-rule="evenodd" fill="#FFFFFF" d="M47.391,118.735c0-0.293,0-0.585,0-0.879c0.292,0,0.585,0,0.878,0
	c0,0.293,0,0.585,0,0.878C47.976,118.734,47.683,118.734,47.391,118.735z"/>
<path fill-rule="evenodd" clip-rule="evenodd" fill="#FFFFFF" d="M41.239,118.631c0.292,0.322,0.585,0.645,0.878,0.967
	C41.825,119.276,41.532,118.954,41.239,118.631z"/>
</svg>
