<?xml version="1.0" encoding="utf-8"?>
<!-- Generator: Adobe Illustrator 16.0.0, SVG Export Plug-In . SVG Version: 6.00 Build 0)  -->
<!DOCTYPE svg PUBLIC "-//W3C//DTD SVG 1.1//EN" "http://www.w3.org/Graphics/SVG/1.1/DTD/svg11.dtd">
<svg version="1.1" id="Capa_1" xmlns="http://www.w3.org/2000/svg" xmlns:xlink="http://www.w3.org/1999/xlink" x="0px" y="0px"
	 width="246px" height="246px" viewBox="0 0 246 246" enable-background="new 0 0 246 246" xml:space="preserve">
<path fill-rule="evenodd" clip-rule="evenodd" fill="#FFFFFF" d="M212.918,115.318c-11.511,0-22.964,0-34.445,0
	c0,0.821-0.03,1.595,0.006,2.365c0.114,2.47,0.422,4.909,1.176,7.279c1.406,4.423,4.331,7.326,8.807,8.477
	c5.155,1.325,10.325,1.241,15.417-0.438c1.802-0.595,3.418-1.563,4.966-2.646c0.36-0.253,0.719-0.507,1.123-0.793
	c0.764,1.007,1.509,1.992,2.282,3.013c-1.628,1.222-3.327,2.262-5.155,3.093c-3.798,1.727-7.812,2.323-11.946,2.301
	c-3.247-0.017-6.445-0.343-9.534-1.412c-5.375-1.861-8.57-5.704-10.023-11.101c-1.172-4.349-1.298-8.794-1.141-13.259
	c0.104-2.975,0.454-5.916,1.319-8.777c1.811-5.989,5.707-9.811,11.816-11.281c4.594-1.105,9.228-1.186,13.839-0.165
	c5.783,1.28,9.192,4.978,10.536,10.681c0.808,3.424,0.925,6.91,0.957,10.404C212.924,113.795,212.918,114.533,212.918,115.318z
	 M208.896,111.543c-0.141-2.782-0.254-5.506-0.903-8.176c-1.004-4.124-3.497-6.779-7.671-7.719
	c-4.167-0.938-8.331-0.853-12.431,0.375c-3.515,1.053-6.057,3.28-7.573,6.64c-0.771,1.71-1.233,3.513-1.482,5.367
	c-0.156,1.16-0.256,2.327-0.384,3.513C188.651,111.543,198.744,111.543,208.896,111.543z"/>
<path fill-rule="evenodd" clip-rule="evenodd" fill="#FFFFFF" d="M133.818,92.432c0.209,0,0.404,0,0.6,0
	c6.743,0,13.486-0.007,20.229,0.004c2.396,0.004,4.762,0.252,7.043,1.054c3.796,1.335,6.285,3.94,7.343,7.807
	c1.044,3.814,1.014,7.671-0.137,11.459c-1.408,4.639-4.673,7.323-9.337,8.281c-1.733,0.356-3.538,0.483-5.313,0.505
	c-5.258,0.063-10.516,0.022-15.774,0.022c-0.216,0-0.432,0-0.688,0c0,5.187,0,10.317,0,15.484c-1.337,0-2.631,0-3.966,0
	C133.818,122.202,133.818,107.346,133.818,92.432z M137.795,117.563c0.174,0,0.309,0,0.444,0c5.521,0,11.042,0.02,16.563-0.016
	c1.157-0.008,2.331-0.125,3.465-0.352c3.515-0.703,5.876-2.743,6.796-6.262c0.675-2.586,0.692-5.208,0.022-7.802
	c-0.745-2.883-2.511-4.921-5.349-5.864c-1.259-0.418-2.617-0.724-3.935-0.744c-5.921-0.091-11.844-0.062-17.767-0.073
	c-0.073,0-0.147,0.028-0.24,0.047C137.795,103.503,137.795,110.485,137.795,117.563z"/>
<path fill-rule="evenodd" clip-rule="evenodd" fill="#FFFFFF" d="M82.228,137.059c-1.4,0-2.718,0-4.092,0c0-0.182,0-0.337,0-0.491
	c0.004-9.435-0.009-18.869,0.021-28.304c0.008-2.566,0.148-5.128,0.78-7.643c1.01-4.026,3.532-6.587,7.434-7.872
	c3.364-1.107,6.841-1.314,10.34-1.286c3.196,0.026,6.364,0.294,9.44,1.279c4.524,1.449,7.131,4.533,7.999,9.168
	c0.498,2.66,0.537,5.347,0.541,8.035c0.015,8.833,0.006,17.665,0.006,26.497c0,0.196,0,0.394,0,0.615c-1.415,0-2.768,0-4.172,0
	c0-0.264,0-0.499,0-0.734c-0.003-9.636,0.009-19.271-0.027-28.906c-0.006-1.458-0.144-2.931-0.391-4.368
	c-0.645-3.751-3.008-5.934-6.594-6.913c-3.036-0.829-6.138-0.926-9.255-0.785c-2.028,0.092-4.029,0.353-5.968,1.009
	c-3.283,1.111-5.206,3.387-5.683,6.789c-0.255,1.82-0.355,3.675-0.362,5.516c-0.035,9.213-0.016,18.427-0.016,27.641
	C82.228,136.545,82.228,136.782,82.228,137.059z"/>
<path fill-rule="evenodd" clip-rule="evenodd" fill="#FFFFFF" d="M67.147,92.381c1.397,0,2.7,0,4.048,0
	c0.015,0.167,0.041,0.319,0.041,0.471c-0.004,9.414,0.004,18.828-0.024,28.242c-0.007,2.508-0.134,5.013-0.708,7.474
	c-1.063,4.547-4,7.211-8.408,8.401c-4.004,1.082-8.09,1.118-12.188,0.897c-2.49-0.133-4.939-0.524-7.297-1.383
	c-4.189-1.525-6.549-4.555-7.375-8.88c-0.489-2.558-0.558-5.144-0.563-7.731c-0.015-8.973-0.006-17.945-0.004-26.917
	c0-0.177,0.015-0.353,0.025-0.56c1.386,0,2.741,0,4.158,0c0,0.249,0,0.484,0,0.719c0.004,9.675-0.009,19.351,0.03,29.025
	c0.006,1.456,0.147,2.932,0.407,4.365c0.654,3.613,2.941,5.748,6.397,6.744c2.632,0.759,5.328,0.894,8.044,0.866
	c2.497-0.025,4.966-0.236,7.352-1.042c3.33-1.123,5.251-3.458,5.703-6.91c0.249-1.902,0.343-3.837,0.35-5.758
	c0.035-9.093,0.016-18.186,0.016-27.279C67.147,92.89,67.147,92.654,67.147,92.381z"/>
<path fill-rule="evenodd" clip-rule="evenodd" fill="#FFFFFF" d="M23.555,92.387c1.373,0,2.691,0,4.046,0
	c0.015,0.131,0.044,0.264,0.044,0.396c-0.001,12.387,0.008,24.775-0.019,37.162c-0.006,2.81-0.146,5.618-0.97,8.34
	c-1.097,3.622-3.532,5.922-7.065,7.128c-3.392,1.157-6.908,1.356-10.451,1.338c-0.356-0.001-0.711,0-1.089,0
	c0-1.307,0-2.544,0-3.846c0.374,0,0.746-0.003,1.119,0c2.595,0.021,5.173-0.107,7.686-0.845c3.952-1.162,6.064-3.661,6.451-7.756
	c0.156-1.655,0.235-3.324,0.238-4.987c0.02-12.066,0.011-24.132,0.011-36.198C23.555,92.883,23.555,92.646,23.555,92.387z"/>
<path fill-rule="evenodd" clip-rule="evenodd" fill="#FFFFFF" d="M240.955,91.622c0,1.347,0,2.605,0,3.85
	c-1.289-0.059-2.547-0.157-3.806-0.165c-2.756-0.017-5.49,0.156-8.14,1.03c-3.475,1.145-5.388,3.585-5.82,7.152
	c-0.224,1.847-0.288,3.722-0.294,5.584c-0.028,9.075-0.013,18.149-0.014,27.224c0,0.237,0.001,0.475,0.001,0.75
	c-1.36,0-2.675,0-4.033,0c-0.015-0.113-0.045-0.244-0.045-0.375c0.009-9.998,0.006-19.996,0.042-29.994
	c0.008-2.209,0.249-4.406,0.863-6.543c1.085-3.775,3.585-6.167,7.272-7.373c3.917-1.28,7.959-1.392,12.024-1.254
	C239.646,91.529,240.283,91.582,240.955,91.622z"/>
<path fill-rule="evenodd" clip-rule="evenodd" fill="#FFFFFF" d="M126.245,137.063c-1.326,0-2.607,0-3.926,0
	c0-14.88,0-29.744,0-44.626c1.314,0,2.595,0,3.926,0C126.245,107.296,126.245,122.153,126.245,137.063z"/>
<path fill-rule="evenodd" clip-rule="evenodd" fill="#FFFFFF" d="M166.22,144.613c-0.356,1.101-0.676,2.088-0.995,3.074
	c-0.722,2.229-1.461,4.454-2.15,6.694c-0.145,0.471-0.428,0.422-0.769,0.441c-0.359,0.02-0.575-0.049-0.701-0.449
	c-1.203-3.821-2.431-7.636-3.648-11.452c-0.047-0.146-0.067-0.302-0.114-0.516c0.297,0,0.54,0.029,0.771-0.007
	c0.435-0.066,0.585,0.146,0.703,0.527c0.924,2.965,1.866,5.923,2.805,8.883c0.066,0.208,0.146,0.412,0.269,0.751
	c0.424-1.297,0.811-2.475,1.193-3.654c0.637-1.963,1.277-3.924,1.901-5.891c0.125-0.396,0.256-0.64,0.763-0.632
	c0.482,0.007,0.646,0.197,0.778,0.612c1.002,3.148,2.023,6.292,3.081,9.567c0.123-0.344,0.212-0.571,0.286-0.804
	c0.891-2.786,1.779-5.572,2.669-8.358c0.344-1.076,0.345-1.076,1.563-0.946c-0.257,0.825-0.505,1.64-0.764,2.45
	c-0.997,3.131-2.004,6.258-2.989,9.392c-0.12,0.381-0.273,0.543-0.704,0.538c-0.445-0.005-0.667-0.106-0.812-0.564
	c-0.954-3.019-1.942-6.025-2.92-9.036C166.383,145.068,166.321,144.904,166.22,144.613z"/>
<path fill-rule="evenodd" clip-rule="evenodd" fill="#FFFFFF" d="M182.02,155.001c-0.713-0.098-1.437-0.146-2.135-0.304
	c-2.036-0.462-3.29-1.765-3.786-3.767c-0.402-1.621-0.39-3.257,0.053-4.878c0.559-2.049,1.924-3.23,3.969-3.65
	c1.249-0.256,2.511-0.251,3.764-0.007c2.133,0.414,3.523,1.661,4.071,3.772c0.415,1.601,0.407,3.223-0.005,4.823
	c-0.613,2.381-2.447,3.781-5.079,3.924c-0.28,0.015-0.562,0.002-0.843,0.002C182.025,154.945,182.022,154.973,182.02,155.001z
	 M186.964,148.621c-0.021-0.002-0.044-0.004-0.065-0.007c0-0.26,0.014-0.521-0.002-0.781c-0.138-2.27-1.287-3.782-3.285-4.186
	c-0.757-0.153-1.559-0.192-2.33-0.14c-2.192,0.152-3.532,1.308-3.969,3.369c-0.27,1.271-0.25,2.554,0.094,3.813
	c0.43,1.58,1.475,2.562,3.069,2.872c0.738,0.145,1.519,0.179,2.271,0.128c2.166-0.146,3.523-1.281,3.982-3.286
	C186.862,149.822,186.889,149.216,186.964,148.621z"/>
<path fill-rule="evenodd" clip-rule="evenodd" fill="#FFFFFF" d="M131.09,142.442c0.444,0,0.813,0,1.219,0c0,4.102,0,8.181,0,12.249
	c-0.755,0.229-1.23,0.007-1.685-0.632c-2.229-3.14-4.51-6.24-6.773-9.354c-0.068-0.094-0.143-0.182-0.295-0.375
	c0,3.53,0,6.943,0,10.343c-0.111,0.042-0.165,0.078-0.22,0.082c-1.073,0.063-1.073,0.063-1.073-1.02c0-3.511,0-7.021,0-10.532
	c0-0.236,0-0.473,0-0.692c1.152-0.277,1.38-0.192,2.012,0.68c2.153,2.971,4.31,5.939,6.465,8.909c0.08,0.11,0.168,0.215,0.351,0.448
	C131.09,149.095,131.09,145.786,131.09,142.442z"/>
<path fill-rule="evenodd" clip-rule="evenodd" fill="#FFFFFF" d="M197.263,149.679c1,1.716,1.951,3.348,2.915,5.001
	c-1.259,0.233-1.269,0.226-1.834-0.753c-0.733-1.267-1.461-2.536-2.219-3.788c-0.111-0.184-0.374-0.383-0.572-0.39
	c-1.082-0.038-2.165-0.019-3.331-0.019c0,1.671,0,3.32,0,4.931c-0.118,0.056-0.152,0.083-0.188,0.087
	c-1.128,0.104-1.128,0.103-1.128-1.019c0-3.53,0-7.062,0-10.593c0-0.217,0-0.433,0-0.73c0.309,0,0.562-0.003,0.814,0
	c1.845,0.022,3.696-0.051,5.531,0.091c2.687,0.208,3.402,2.023,3.087,4.379C200.112,148.566,198.991,149.393,197.263,149.679z
	 M192.253,143.729c0,1.582,0,3.176,0,4.793c1.452,0,2.856,0.004,4.26-0.005c0.259-0.002,0.518-0.051,0.774-0.092
	c0.984-0.161,1.541-0.693,1.743-1.656c0.335-1.596-0.303-2.907-1.655-3.01C195.686,143.632,193.979,143.729,192.253,143.729z"/>
<path fill-rule="evenodd" clip-rule="evenodd" fill="#FFFFFF" d="M136.837,143.661c0,1.382,0,2.677,0,4.033
	c0.222,0.01,0.434,0.028,0.646,0.028c1.826,0.003,3.653,0.024,5.479-0.012c0.569-0.011,0.536,0.288,0.549,0.674
	c0.013,0.404-0.047,0.624-0.545,0.616c-1.806-0.028-3.612-0.011-5.418-0.011c-0.22,0-0.438,0-0.701,0c0,1.513,0,2.985,0,4.526
	c2.272,0,4.529,0,6.887,0c0,0.357,0.033,0.653-0.016,0.936c-0.021,0.119-0.215,0.298-0.331,0.298
	c-2.605,0.018-5.211,0.014-7.862,0.014c0-4.128,0-8.206,0-12.321c2.694,0,5.373,0,8.091,0c0,0.387,0,0.76,0,1.219
	C141.373,143.661,139.121,143.661,136.837,143.661z"/>
<path fill-rule="evenodd" clip-rule="evenodd" fill="#FFFFFF" d="M213.914,153.525c0.261-0.39,0.458-0.685,0.579-0.866
	c1.152,0.349,2.216,0.826,3.32,0.96c1.089,0.132,2.241,0.025,3.327-0.179c1.063-0.2,1.541-0.999,1.541-2.08
	c-0.001-1.001-0.471-1.656-1.55-1.94c-1.16-0.305-2.348-0.508-3.521-0.762c-0.273-0.06-0.541-0.145-0.811-0.22
	c-2.301-0.639-2.58-2.576-2.016-4.282c0.326-0.987,1.139-1.492,2.101-1.706c1.839-0.409,3.663-0.33,5.438,0.343
	c0.329,0.125,0.631,0.324,0.987,0.512c-0.24,0.365-0.447,0.68-0.681,1.035c-0.207-0.095-0.399-0.182-0.592-0.27
	c-1.515-0.692-3.095-0.805-4.702-0.461c-0.972,0.207-1.446,0.827-1.494,1.779c-0.044,0.875,0.341,1.531,1.281,1.808
	c1.206,0.355,2.453,0.57,3.68,0.858c0.408,0.096,0.813,0.213,1.21,0.351c1.317,0.459,1.947,1.426,1.963,2.791
	c0.015,1.407-0.434,2.641-1.835,3.161C219.32,155.405,216.602,155.028,213.914,153.525z"/>
<path fill-rule="evenodd" clip-rule="evenodd" fill="#FFFFFF" d="M203.238,142.44c0.406,0,0.796,0,1.246,0c0,2.221,0,4.414,0,6.762
	c0.684-0.737,1.266-1.36,1.842-1.988c1.383-1.509,2.725-3.06,4.174-4.502c0.331-0.33,1.03-0.29,1.56-0.421
	c0.031,0.071,0.063,0.144,0.093,0.215c-1.437,1.576-2.874,3.153-4.333,4.754c1.665,2.482,3.313,4.94,4.987,7.439
	c-0.914,0.187-1.534,0.067-2.053-0.783c-1.074-1.763-2.284-3.441-3.44-5.154c-0.109-0.162-0.23-0.316-0.384-0.526
	c-0.8,0.874-1.577,1.706-2.326,2.564c-0.109,0.125-0.106,0.373-0.107,0.565c-0.01,1.103-0.005,2.205-0.005,3.354
	c-0.423,0-0.812,0-1.253,0C203.238,150.629,203.238,146.552,203.238,142.44z"/>
<path fill-rule="evenodd" clip-rule="evenodd" fill="#FFFFFF" d="M145.639,143.688c0-0.45,0-0.822,0-1.238c3.497,0,6.977,0,10.505,0
	c0,0.379,0,0.766,0,1.225c-1.491,0-2.985,0-4.539,0c0,3.711,0,7.354,0,11.043c-0.467,0-0.872,0-1.341,0c0-3.667,0-7.309,0-11.029
	C148.691,143.688,147.18,143.688,145.639,143.688z"/>
<path fill-rule="evenodd" clip-rule="evenodd" fill="#FFFFFF" d="M231.855,131.641c1.573,0.014,2.799,1.272,2.778,2.854
	c-0.02,1.544-1.266,2.772-2.81,2.769c-1.567-0.003-2.83-1.271-2.819-2.83C229.016,132.867,230.28,131.628,231.855,131.641z
	 M234.268,134.423c-0.01-1.357-1.091-2.422-2.453-2.416c-1.359,0.006-2.435,1.081-2.438,2.438c-0.003,1.379,1.105,2.469,2.489,2.449
	C233.225,136.874,234.277,135.79,234.268,134.423z"/>
<path fill-rule="evenodd" clip-rule="evenodd" fill="#FFFFFF" d="M230.665,132.848c0.579,0,1.077-0.005,1.575,0.001
	c0.481,0.006,0.881,0.156,0.981,0.69c0.098,0.515,0.001,0.959-0.542,1.194c-0.052,0.022-0.091,0.073-0.158,0.13
	c0.21,0.379,0.419,0.756,0.643,1.159c-0.564,0.18-0.611-0.295-0.775-0.558c-0.416-0.669-0.403-0.677-1.281-0.604
	c0,0.187,0,0.38,0,0.574c0,0.195,0,0.392,0,0.587c-0.062,0.032-0.123,0.063-0.185,0.095c-0.086-0.129-0.243-0.255-0.246-0.385
	C230.655,134.792,230.665,133.852,230.665,132.848z M231.14,133.248c0,0.432,0,0.784,0,1.169c0.387,0,0.743,0.017,1.097-0.005
	c0.373-0.022,0.58-0.223,0.566-0.622c-0.014-0.38-0.232-0.531-0.578-0.54C231.87,133.241,231.515,133.248,231.14,133.248z"/>
</svg>
