<?xml version="1.0" encoding="utf-8"?>
<!-- Generator: Adobe Illustrator 16.0.0, SVG Export Plug-In . SVG Version: 6.00 Build 0)  -->
<!DOCTYPE svg PUBLIC "-//W3C//DTD SVG 1.1//EN" "http://www.w3.org/Graphics/SVG/1.1/DTD/svg11.dtd">
<svg version="1.1" id="Capa_1" xmlns="http://www.w3.org/2000/svg" xmlns:xlink="http://www.w3.org/1999/xlink" x="0px" y="0px"
	 width="246px" height="246px" viewBox="0 0 246 246" enable-background="new 0 0 246 246" xml:space="preserve">
<path fill-rule="evenodd" clip-rule="evenodd" fill="#FFFFFF" d="M27.878,94.867c-0.003,7.805-0.007,15.61-0.011,23.415
	c0,0.238,0,0.476,0,0.81c-0.258,0-0.488,0-0.717,0c-7.606,0-15.212,0-22.818,0.001c-0.237,0-0.475,0.021-0.713,0.032
	c0-8.076,0-16.152,0-24.258C11.706,94.867,19.792,94.867,27.878,94.867z"/>
<path fill-rule="evenodd" clip-rule="evenodd" fill="#FFFFFF" d="M54.646,94.867c-0.005,4.141-0.011,8.282-0.014,12.423
	c-0.002,3.683,0,7.367,0,11.05c0,0.218,0,0.436,0,0.702c-8.079,0-16.128,0-24.244,0c0-8.063,0-16.119,0-24.176
	C38.474,94.867,46.56,94.867,54.646,94.867z"/>
<path fill-rule="evenodd" clip-rule="evenodd" fill="#FFFFFF" d="M3.62,121.634c4.28-0.005,8.56-0.011,12.84-0.014
	c3.564-0.002,7.127,0,10.691,0c0.215,0,0.431,0,0.681,0c0,8.064,0,16.077,0,24.146c-0.166,0.015-0.335,0.043-0.505,0.043
	c-7.764,0.002-15.528,0.002-23.293,0c-0.138,0-0.276-0.022-0.414-0.035C3.62,137.728,3.62,129.681,3.62,121.634z"/>
<path fill-rule="evenodd" clip-rule="evenodd" fill="#FFFFFF" d="M30.417,145.779c0-8.076,0-16.09,0-24.132
	c8.066,0,16.101,0,24.175,0c0,8.044,0,16.072,0,24.132C46.528,145.779,38.494,145.779,30.417,145.779z"/>
<path fill-rule="evenodd" clip-rule="evenodd" fill="#FFFFFF" d="M74.855,112.216c0,7.773,0,15.547,0,23.356
	c-1.658,0-3.259,0-4.895,0c0-10.165,0-20.308,0-30.516c0.226,0,0.42,0,0.614,0c2.091,0,4.182,0.015,6.272-0.011
	c0.465-0.006,0.694,0.118,0.872,0.571c2.809,7.14,5.639,14.272,8.464,21.406c0.078,0.197,0.164,0.392,0.292,0.693
	c0.812-1.988,1.578-3.86,2.342-5.734c2.237-5.485,4.476-10.97,6.703-16.459c0.14-0.346,0.319-0.478,0.7-0.474
	c2.091,0.019,4.182,0.016,6.272,0.002c0.377-0.002,0.523,0.096,0.523,0.5c-0.01,9.896-0.008,19.793-0.009,29.689
	c0,0.097-0.017,0.193-0.029,0.328c-1.723,0-3.424,0-5.223,0c0-7.802,0-15.606,0-23.41c-0.058-0.012-0.115-0.023-0.172-0.034
	c-0.088,0.204-0.182,0.406-0.264,0.612c-2.951,7.426-5.907,14.85-8.838,22.283c-0.188,0.479-0.424,0.621-0.909,0.6
	c-0.834-0.037-1.673-0.036-2.508,0c-0.432,0.019-0.622-0.136-0.78-0.53c-2.983-7.435-5.981-14.863-8.978-22.292
	c-0.086-0.214-0.188-0.422-0.281-0.633C74.967,112.181,74.911,112.198,74.855,112.216z"/>
<path fill-rule="evenodd" clip-rule="evenodd" fill="#FFFFFF" d="M219.219,117.924c-1.243,0-2.393,0-3.582,0
	c0-1.401,0-2.761,0-4.186c1.178,0,2.342,0,3.575,0c0-1.134-0.022-2.203,0.005-3.272c0.041-1.624,0.441-3.15,1.398-4.489
	c1.374-1.925,3.301-2.918,5.615-3.076c1.117-0.076,2.253,0.117,3.38,0.195c0.405,0.028,0.563,0.228,0.552,0.663
	c-0.03,1.27-0.011,2.542-0.011,3.838c-0.597-0.156-1.139-0.339-1.696-0.437c-2.234-0.392-3.722,0.667-3.956,2.926
	c-0.123,1.178-0.022,2.379-0.022,3.609c2.534,0,5.053,0,7.679,0c0-0.309,0-0.617,0-0.925c0-1.175-0.014-2.35,0.014-3.524
	c0.004-0.186,0.147-0.485,0.292-0.533c1.53-0.499,3.073-0.958,4.613-1.424c0.07-0.021,0.152-0.003,0.288-0.003
	c0,2.145,0,4.267,0,6.437c1.743,0,3.429,0,5.164,0c0,1.407,0,2.767,0,4.19c-1.704,0-3.404,0-5.141,0
	c-0.015,0.214-0.033,0.367-0.033,0.52c-0.001,3.306-0.004,6.611,0.006,9.917c0.001,0.436,0.048,0.874,0.113,1.305
	c0.229,1.518,1.174,2.347,3.057,2.17c0.671-0.063,1.32-0.356,2.038-0.563c0,1.27,0.012,2.574-0.018,3.879
	c-0.003,0.13-0.23,0.317-0.391,0.371c-2.17,0.729-4.366,0.914-6.544,0.08c-1.987-0.761-2.932-2.374-3.254-4.376
	c-0.155-0.957-0.189-1.94-0.196-2.913c-0.023-3.186-0.009-6.372-0.009-9.558c0-0.238,0-0.476,0-0.766c-2.565,0-5.099,0-7.686,0
	c0,5.835,0,11.68,0,17.577c-1.769,0-3.483,0-5.251,0C219.219,129.698,219.219,123.853,219.219,117.924z"/>
<path fill-rule="evenodd" clip-rule="evenodd" fill="#FFFFFF" d="M150.765,125.238c0.047-2.119,0.246-3.809,0.882-5.425
	c1.146-2.915,3.188-4.924,6.152-5.914c2.745-0.917,5.554-0.993,8.343-0.205c3.268,0.923,5.457,3.052,6.479,6.278
	c1.048,3.311,1.009,6.644-0.363,9.861c-1.524,3.572-4.347,5.544-8.142,6.124c-2.145,0.327-4.291,0.262-6.367-0.449
	c-3.917-1.342-6.085-4.16-6.774-8.178C150.833,126.512,150.806,125.672,150.765,125.238z M168.041,124.87
	c-0.136-1.096-0.187-1.994-0.367-2.865c-0.555-2.681-2.396-4.333-4.981-4.536c-2.785-0.219-4.998,1.078-5.943,3.538
	c-0.664,1.727-0.766,3.527-0.521,5.347c0.387,2.868,1.974,5.326,5.547,5.499c2.65,0.128,4.856-0.886,5.684-3.776
	C167.772,126.979,167.874,125.822,168.041,124.87z"/>
<path fill-rule="evenodd" clip-rule="evenodd" fill="#FFFFFF" d="M215.147,124.438c-0.086,2.819-0.688,5.456-2.468,7.716
	c-1.986,2.521-4.676,3.685-7.805,3.924c-1.876,0.144-3.748,0.039-5.532-0.622c-4.002-1.48-6.114-4.459-6.664-8.61
	c-0.29-2.193-0.152-4.373,0.562-6.481c1.362-4.027,4.237-6.272,8.373-6.97c2.104-0.355,4.21-0.32,6.266,0.281
	c3.848,1.125,6.065,3.772,6.88,7.633C214.975,122.333,215.022,123.395,215.147,124.438z M209.864,124.648
	c-0.033-0.008-0.067-0.016-0.101-0.023c-0.042-0.535-0.081-1.07-0.127-1.605c-0.265-3.1-1.994-5.103-4.911-5.5
	c-2.695-0.367-5.153,0.74-6.23,3.58c-0.578,1.523-0.676,3.109-0.546,4.704c0.277,3.409,2.055,5.906,5.649,6.05
	c2.686,0.107,4.77-0.904,5.622-3.704C209.563,127.021,209.657,125.817,209.864,124.648z"/>
<path fill-rule="evenodd" clip-rule="evenodd" fill="#FFFFFF" d="M175.776,129.991c0.761,0.406,1.45,0.837,2.188,1.156
	c1.669,0.723,3.401,1.115,5.232,0.757c1.506-0.294,2.168-1.288,1.829-2.722c-0.155-0.659-0.618-1.078-1.17-1.362
	c-1.13-0.582-2.292-1.102-3.438-1.649c-0.431-0.206-0.86-0.414-1.283-0.636c-2.378-1.248-3.507-3.237-3.377-5.898
	c0.143-2.909,1.821-4.73,4.412-5.742c2.856-1.116,5.741-0.828,8.59,0.112c0.168,0.056,0.378,0.318,0.381,0.489
	c0.031,1.429,0.018,2.858,0.018,4.216c-1.082-0.401-2.122-0.931-3.224-1.154c-1.028-0.208-2.135-0.204-3.183-0.081
	c-0.942,0.111-1.646,0.745-1.764,1.767c-0.114,0.99,0.229,1.829,1.151,2.3c0.99,0.506,2.009,0.957,3.023,1.414
	c1.422,0.642,2.824,1.328,3.846,2.553c2.146,2.574,1.603,6.68-1.125,8.781c-1.438,1.107-3.102,1.601-4.87,1.768
	c-2.314,0.218-4.56-0.14-6.742-0.931c-0.388-0.141-0.559-0.328-0.546-0.772c0.035-1.274,0.011-2.549,0.014-3.824
	C175.74,130.362,175.762,130.191,175.776,129.991z"/>
<path fill-rule="evenodd" clip-rule="evenodd" fill="#FFFFFF" d="M133.827,129.942c0,1.57,0.013,3.019-0.019,4.466
	c-0.003,0.15-0.232,0.345-0.402,0.437c-1.278,0.69-2.662,1.044-4.098,1.187c-2.33,0.233-4.614,0.072-6.77-0.948
	c-2.885-1.366-4.692-3.652-5.468-6.708c-0.817-3.218-0.509-6.378,0.99-9.352c1.646-3.267,4.436-5.01,7.972-5.627
	c2.355-0.411,4.671-0.216,6.943,0.555c0.635,0.215,0.912,0.511,0.874,1.23c-0.07,1.326-0.021,2.658-0.021,4.101
	c-0.256-0.16-0.432-0.267-0.604-0.378c-1.711-1.106-3.55-1.672-5.605-1.362c-2.73,0.411-4.472,1.989-5.228,4.594
	c-0.646,2.225-0.591,4.46,0.494,6.564c0.971,1.882,2.602,2.834,4.671,3.097c2.058,0.262,3.886-0.37,5.605-1.429
	C133.347,130.255,133.528,130.135,133.827,129.942z"/>
<path fill-rule="evenodd" clip-rule="evenodd" fill="#FFFFFF" d="M137.734,135.569c0-7.266,0-14.506,0-21.791
	c1.686,0,3.364,0,5.094,0c0,1.189,0,2.373,0,3.556c0.035,0.01,0.069,0.021,0.104,0.032c0.167-0.323,0.327-0.65,0.502-0.969
	c1.336-2.442,3.804-3.542,6.454-2.901c0.41,0.099,0.592,0.259,0.582,0.719c-0.031,1.493-0.012,2.986-0.012,4.502
	c-0.64-0.198-1.241-0.431-1.863-0.569c-2.106-0.467-3.763,0.301-4.811,2.194c-0.715,1.291-0.927,2.7-0.931,4.147
	c-0.01,3.466-0.004,6.931-0.004,10.396c0,0.216,0,0.431,0,0.685C141.124,135.569,139.444,135.569,137.734,135.569z"/>
<path fill-rule="evenodd" clip-rule="evenodd" fill="#FFFFFF" d="M113.062,135.591c-1.709,0-3.358,0-5.058,0
	c0-7.261,0-14.511,0-21.81c1.662,0,3.339,0,5.058,0C113.062,121.033,113.062,128.284,113.062,135.591z"/>
<path fill-rule="evenodd" clip-rule="evenodd" fill="#FFFFFF" d="M110.628,104.414c1.777,0.008,3.09,1.293,3.081,3.015
	c-0.009,1.653-1.355,2.921-3.112,2.931c-1.748,0.01-3.14-1.323-3.125-2.991C107.489,105.689,108.859,104.405,110.628,104.414z"/>
</svg>
