<?xml version="1.0" encoding="utf-8"?>
<!-- Generator: Adobe Illustrator 16.0.0, SVG Export Plug-In . SVG Version: 6.00 Build 0)  -->
<!DOCTYPE svg PUBLIC "-//W3C//DTD SVG 1.1//EN" "http://www.w3.org/Graphics/SVG/1.1/DTD/svg11.dtd">
<svg version="1.1" id="Capa_1" xmlns="http://www.w3.org/2000/svg" xmlns:xlink="http://www.w3.org/1999/xlink" x="0px" y="0px"
	 width="246px" height="246px" viewBox="0 0 246 246" enable-background="new 0 0 246 246" xml:space="preserve">
<path fill-rule="evenodd" clip-rule="evenodd" fill="#FFFFFF" d="M40.655,102.939c-8.198-2.402-15.706-1.207-22.221,4.5
	c-4.384,3.841-6.792,8.768-7.151,14.607c-0.795,12.906,9.448,22.883,21.406,23.065c7.427,0.112,13.577-2.752,18.09-8.673
	c4.493-5.896,5.452-12.527,3.479-19.647c1.076,2.044,1.638,4.242,1.928,6.499c0.913,7.085-0.726,13.571-5.001,19.276
	c-8.661,11.557-24.8,14.058-36.583,5.975c-11.69-8.02-14.972-23.675-7.463-35.523C15.016,100.585,30.147,97.959,40.655,102.939z"/>
<path fill-rule="evenodd" clip-rule="evenodd" fill="#FFFFFF" d="M100.52,128.521c-0.165,1.459,0.152,1.823,1.521,1.823
	c6.479,0.002,12.96,0.001,19.439,0.001c0.25,0,0.5,0,0.795,0c0,1.229,0,2.426,0,3.682c-0.176,0.013-0.372,0.037-0.567,0.037
	c-8.031,0.002-16.063,0.005-24.094-0.007c-0.424-0.001-0.868-0.073-1.269-0.211c-0.981-0.335-1.366-0.918-1.367-1.953
	c-0.002-3.423,0-6.845,0-10.268c0-1.356,0.685-2.153,2.04-2.349c0.336-0.049,0.681-0.068,1.021-0.068
	c7.073-0.003,14.146-0.001,21.22-0.005c0.817,0,1.572,0.147,2.261,0.629c0.534,0.374,0.802,0.851,0.802,1.492
	c0,1.688,0.015,3.377-0.005,5.065c-0.014,1.102-0.758,1.858-1.988,2.055c-0.381,0.061-0.772,0.073-1.159,0.074
	c-5.955,0.005-11.91,0.003-17.865,0.003C101.054,128.521,100.805,128.521,100.52,128.521z M100.5,124.746
	c0.133,0.013,0.222,0.027,0.312,0.027c4.838,0.001,9.677,0.006,14.515-0.002c0.914-0.001,1.482-0.373,1.462-0.905
	c-0.019-0.496-0.66-0.91-1.499-0.912c-4.428-0.008-8.855-0.012-13.283,0.001C100.713,122.96,100.384,123.367,100.5,124.746z"/>
<path fill-rule="evenodd" clip-rule="evenodd" fill="#FFFFFF" d="M193.454,128.521c-0.167,1.499,0.122,1.823,1.563,1.824
	c6.458,0,12.916,0,19.374,0c0.248,0,0.495,0,0.781,0c0,1.238,0,2.437,0,3.721c-0.202,0-0.422,0-0.641,0
	c-7.965,0-15.931,0.006-23.895-0.013c-0.533-0.001-1.094-0.11-1.592-0.301c-0.767-0.292-1.146-0.882-1.14-1.757
	c0.023-3.468,0.01-6.938,0.01-10.406c0-1.346,0.642-2.099,1.988-2.308c0.313-0.049,0.635-0.072,0.953-0.073
	c7.12-0.003,14.24-0.007,21.36,0.007c0.493,0.001,1.013,0.059,1.475,0.223c1.162,0.411,1.521,0.98,1.521,2.205
	c0.001,1.483-0.074,2.972,0.021,4.448c0.098,1.528-0.895,2.139-2.104,2.364c-0.333,0.063-0.681,0.063-1.021,0.063
	c-5.935,0.005-11.868,0.003-17.801,0.003C194.035,128.521,193.762,128.521,193.454,128.521z M193.444,124.771
	c5.021,0,9.993,0.003,14.967-0.008c0.265,0,0.551-0.064,0.789-0.181c0.65-0.315,0.704-0.961,0.081-1.315
	c-0.337-0.192-0.771-0.301-1.16-0.303c-4.382-0.021-8.765-0.021-13.146-0.009C193.615,122.959,193.309,123.333,193.444,124.771z"/>
<path fill-rule="evenodd" clip-rule="evenodd" fill="#FFFFFF" d="M150.964,134.065c-0.259,0-0.438,0-0.618,0
	c-7.985,0-15.972,0.004-23.957-0.011c-0.489-0.001-1.002-0.095-1.463-0.258c-0.909-0.321-1.233-0.85-1.235-1.817
	c-0.002-1.551,0-3.103,0-4.654c0-1.616,0.789-2.447,2.423-2.547c0.182-0.012,0.364-0.002,0.547-0.002c6.047,0,12.093,0,18.14-0.002
	c0.202,0,0.405,0,0.6,0c0.251-1.337-0.17-1.82-1.606-1.821c-6.435-0.006-12.869-0.002-19.303-0.003c-0.246,0-0.49,0-0.768,0
	c0-1.265,0-2.466,0-3.746c0.254,0,0.499,0,0.742,0c7.781,0,15.561-0.005,23.342,0.012c0.581,0.001,1.199,0.065,1.736,0.268
	c0.934,0.352,1.464,0.975,1.446,2.122C150.927,125.731,150.964,129.859,150.964,134.065z M145.454,128.575
	c-0.097-0.027-0.14-0.049-0.182-0.049c-4.877-0.004-9.755-0.01-14.632,0.001c-0.311,0.001-0.672,0.045-0.915,0.208
	c-0.244,0.164-0.522,0.513-0.507,0.764c0.016,0.254,0.329,0.568,0.59,0.709c0.259,0.141,0.617,0.132,0.932,0.132
	c4.695,0.007,9.391,0.005,14.085,0.005c0.199,0,0.398,0,0.629,0C145.454,129.725,145.454,129.162,145.454,128.575z"/>
<path fill-rule="evenodd" clip-rule="evenodd" fill="#FFFFFF" d="M159.233,134.065c0-1.29,0-2.47,0-3.721c0.272,0,0.517,0,0.76,0
	c6.459,0,12.917,0.005,19.376-0.011c0.417-0.001,0.874-0.08,1.243-0.262c0.546-0.268,0.573-0.901,0.043-1.192
	c-0.396-0.218-0.896-0.343-1.351-0.345c-5.682-0.022-11.364-0.013-17.047-0.019c-0.387,0-0.778-0.016-1.158-0.079
	c-1.296-0.217-1.895-0.938-1.896-2.249c-0.002-1.529-0.001-3.059,0-4.587c0.001-1.302,0.697-2.114,2.009-2.321
	c0.313-0.05,0.635-0.071,0.953-0.072c7.919-0.003,15.838-0.003,23.757-0.001c0.18,0,0.358,0.015,0.581,0.024c0,1.226,0,2.421,0,3.72
	c-0.255,0-0.519,0-0.781,0c-6.367,0-12.734-0.003-19.102,0.007c-0.426,0-0.892,0.018-1.265,0.188
	c-0.27,0.123-0.587,0.518-0.575,0.779c0.012,0.265,0.356,0.608,0.639,0.739c0.309,0.144,0.714,0.107,1.076,0.107
	c5.704,0.006,11.41-0.003,17.115,0.016c0.513,0.002,1.056,0.088,1.528,0.275c0.939,0.373,1.486,1.022,1.427,2.15
	c-0.077,1.457-0.019,2.92-0.019,4.381c0,1.497-0.801,2.355-2.308,2.468c-0.112,0.008-0.228,0.004-0.341,0.004
	c-8.034,0-16.066,0-24.1,0C159.622,134.065,159.445,134.065,159.233,134.065z"/>
<path fill-rule="evenodd" clip-rule="evenodd" fill="#FFFFFF" d="M20.047,109.276c2.169-2.075,4.726-3.495,7.598-4.296
	c6.039-1.685,11.708-0.822,16.885,2.746c3.114,2.146,5.342,5.002,6.804,8.542c1.712,4.144,1.932,8.311,0.671,12.546
	c-0.878,2.948-2.319,5.631-4.516,7.847c-0.18,0.181-0.397,0.323-0.643,0.521c0.352-1.429,0.769-2.744,0.991-4.093
	c0.954-5.792-0.474-11.014-4.099-15.582c-3.964-4.997-9.241-7.72-15.537-8.513c-2.506-0.315-5.005-0.232-7.488,0.248
	c-0.219,0.042-0.451,0.019-0.676,0.026L20.047,109.276z"/>
<path fill-rule="evenodd" clip-rule="evenodd" fill="#FFFFFF" d="M243.858,130.345c0,1.272,0,2.451,0,3.688
	c-0.233,0.012-0.451,0.031-0.669,0.031c-7.964,0.002-15.926,0.007-23.89-0.01c-0.512-0.001-1.053-0.095-1.528-0.278
	c-0.786-0.302-1.204-0.892-1.198-1.796c0.021-3.468,0.009-6.936,0.009-10.404c0-1.288,0.662-2.075,1.945-2.291
	c0.313-0.053,0.636-0.076,0.954-0.076c7.963-0.004,15.926-0.003,23.889-0.002c0.136,0,0.271,0.013,0.458,0.021
	c0,1.229,0,2.444,0,3.723c-0.264,0-0.508,0-0.753,0c-6.344,0-12.687,0-19.03,0.001c-0.318,0-0.641-0.008-0.955,0.034
	c-0.692,0.093-1.022,0.454-1.027,1.133c-0.009,1.711-0.001,3.422-0.003,5.134c-0.001,0.592,0.278,0.948,0.87,1.028
	c0.27,0.037,0.543,0.061,0.815,0.061c6.434,0.004,12.868,0.003,19.303,0.003C243.297,130.345,243.546,130.345,243.858,130.345z"/>
<path fill-rule="evenodd" clip-rule="evenodd" fill="#FFFFFF" d="M93.576,119.237c0,1.229,0,2.43,0,3.714c-0.251,0-0.494,0-0.737,0
	c-6.321,0-12.643,0-18.964,0c-0.297,0-0.594-0.001-0.889,0.022c-0.854,0.068-1.173,0.412-1.173,1.251c-0.001,3.035,0,6.07,0,9.106
	c0,0.224,0,0.447,0,0.702c-1.837,0-3.628,0-5.5,0c0-0.245,0-0.486,0-0.728c0-3.901,0-7.805,0-11.707
	c0-1.332,0.667-2.116,1.986-2.318c0.314-0.048,0.636-0.072,0.954-0.073c7.918-0.003,15.838-0.003,23.757-0.001
	C93.187,119.207,93.366,119.225,93.576,119.237z"/>
<path fill-rule="evenodd" clip-rule="evenodd" fill="#FFFFFF" d="M157.785,134.06c-1.784,0-3.557,0-5.379,0
	c0-6.145,0-12.289,0-18.492c1.76,0,3.545,0,5.379,0C157.785,121.694,157.785,127.838,157.785,134.06z"/>
<path fill-rule="evenodd" clip-rule="evenodd" fill="#FFFFFF" d="M20.038,109.268c-0.012,0.025-0.023,0.051-0.036,0.076
	c0-0.011-0.003-0.026,0.002-0.032c0.012-0.014,0.029-0.023,0.044-0.035C20.047,109.276,20.038,109.268,20.038,109.268z"/>
</svg>
