<?xml version="1.0" encoding="utf-8"?>
<!-- Generator: Adobe Illustrator 16.0.0, SVG Export Plug-In . SVG Version: 6.00 Build 0)  -->
<!DOCTYPE svg PUBLIC "-//W3C//DTD SVG 1.1//EN" "http://www.w3.org/Graphics/SVG/1.1/DTD/svg11.dtd">
<svg version="1.1" id="Capa_1" xmlns="http://www.w3.org/2000/svg" xmlns:xlink="http://www.w3.org/1999/xlink" x="0px" y="0px"
	 width="246px" height="246px" viewBox="0 0 246 246" enable-background="new 0 0 246 246" xml:space="preserve">
<path fill-rule="evenodd" clip-rule="evenodd" fill="#FFFFFF" d="M204.071,141.182c-2.577,0.908-4.958,1.666-7.271,2.596
	c-1.185,0.476-1.764,0.113-2.44-0.84c-3.902-5.499-7.86-10.958-11.818-16.416c-0.304-0.419-0.439-1.033-1.305-1.216
	c0,1.723,0,3.379,0,5.036c-0.001,3.871-0.045,7.744,0.023,11.615c0.022,1.227-0.341,1.646-1.585,1.592
	c-2.119-0.092-4.247-0.069-6.368-0.006c-1.071,0.031-1.55-0.197-1.547-1.426c0.038-16.425,0.035-32.85,0.007-49.274
	c-0.002-1.073,0.339-1.407,1.396-1.373c2.121,0.069,4.252,0.122,6.367-0.014c1.477-0.095,1.743,0.459,1.734,1.804
	c-0.055,8.931-0.036,17.861-0.009,26.792c0.002,0.623-0.411,1.523,0.424,1.833c0.804,0.299,1.158-0.569,1.585-1.062
	c3.521-4.056,7.046-8.106,10.511-12.208c0.717-0.848,1.301-1.114,2.351-0.572c1.438,0.742,2.945,1.372,4.47,1.919
	c1.276,0.459,1.13,0.893,0.313,1.749c-3.362,3.522-6.632,7.133-10.014,10.637c-0.83,0.86-0.864,1.372-0.105,2.296
	c4.041,4.924,8.01,9.905,12,14.868C203.175,139.993,203.54,140.489,204.071,141.182z"/>
<path fill-rule="evenodd" clip-rule="evenodd" fill="#FFFFFF" d="M115.757,139.331c-0.74,0.023-0.943,0.465-1.239,0.751
	c-4.368,4.224-9.591,5.126-15.284,3.75c-4.586-1.108-7.306-4.683-7.732-9.89c-0.373-4.55-0.136-9.114-0.173-13.673
	c-0.03-3.623,0.029-7.246-0.026-10.868c-0.016-1.067,0.313-1.41,1.386-1.369c2.058,0.079,4.126,0.104,6.182-0.006
	c1.425-0.076,1.931,0.29,1.907,1.833c-0.093,6.245-0.041,12.492-0.035,18.738c0.001,0.811,0.014,1.624,0.067,2.434
	c0.281,4.265,2.229,6.524,5.946,6.92c4.005,0.427,7.248-1.641,8.402-5.358c0.506-1.63,0.591-3.314,0.594-5.002
	c0.012-5.934,0.05-11.868-0.028-17.801c-0.019-1.417,0.384-1.845,1.791-1.766c2.117,0.12,4.247,0.07,6.369,0.015
	c0.975-0.025,1.292,0.298,1.29,1.286c-0.028,10.993-0.027,21.987,0.001,32.98c0.002,0.977-0.296,1.317-1.281,1.293
	c-2.248-0.057-4.498-0.065-6.745,0.002c-1.042,0.031-1.494-0.264-1.408-1.358C115.816,141.276,115.757,140.302,115.757,139.331z"/>
<path fill-rule="evenodd" clip-rule="evenodd" fill="#FFFFFF" d="M140.963,112.199c4.474-4.249,9.491-5.672,15.248-4.662
	c4.844,0.85,7.87,3.917,8.817,8.732c0.438,2.228,0.365,4.48,0.381,6.722c0.043,6.307-0.008,12.616,0.038,18.922
	c0.008,1.156-0.221,1.7-1.53,1.637c-2.118-0.104-4.248-0.098-6.367-0.002c-1.275,0.057-1.555-0.422-1.544-1.616
	c0.056-6.183,0.036-12.365,0.017-18.548c-0.003-1.246-0.021-2.505-0.197-3.735c-0.539-3.768-2.548-5.708-6.063-5.984
	c-3.842-0.302-7.024,1.636-8.144,4.946c-0.674,1.992-0.64,4.06-0.647,6.117c-0.02,5.684-0.054,11.367,0.027,17.049
	c0.021,1.415-0.384,1.851-1.786,1.775c-2.117-0.113-4.246-0.068-6.367-0.015c-0.979,0.024-1.293-0.327-1.291-1.298
	c0.025-10.99,0.028-21.982-0.001-32.973c-0.003-1.045,0.432-1.248,1.346-1.228c2.185,0.047,4.375,0.088,6.556-0.011
	c1.289-0.059,1.649,0.426,1.525,1.619C140.892,110.489,140.963,111.348,140.963,112.199z"/>
<path fill-rule="evenodd" clip-rule="evenodd" fill="#FFFFFF" d="M17.129,144.392c-3.721,0.01-7.134-0.961-10.25-3.042
	c-1.054-0.704-1.54-1.259-0.587-2.443c0.815-1.014,1.186-2.734,2.176-3.16c1.089-0.469,2.077,1.179,3.188,1.781
	c1.756,0.951,3.565,1.517,5.561,1.228c1.637-0.237,3.017-0.999,3.625-2.6c0.613-1.613,0.396-3.212-0.76-4.571
	c-1.389-1.635-3.188-2.788-4.892-4.049c-1.857-1.373-3.756-2.694-5.296-4.441c-3.846-4.361-2.977-10.646,1.899-13.786
	c4.462-2.874,12.851-2.707,17.178,0.341c0.152,0.107,0.44,0.213,0.44,0.318c-0.007,1.592-1.339,2.532-1.929,3.843
	c-0.39,0.866-0.931,0.523-1.516,0.202c-1.842-1.01-3.781-1.618-5.918-1.272c-1.522,0.246-2.726,0.952-3.234,2.476
	c-0.501,1.501,0.144,2.726,1.246,3.664c1.851,1.576,3.794,3.044,5.672,4.589c1.348,1.109,2.73,2.192,3.963,3.422
	c4.537,4.524,3.748,11.646-1.646,15.144C23.34,143.791,20.31,144.393,17.129,144.392z"/>
<path fill-rule="evenodd" clip-rule="evenodd" fill="#FFFFFF" d="M85.221,117.578c0,8.062-0.032,16.125,0.031,24.186
	c0.011,1.389-0.343,1.882-1.774,1.791c-1.93-0.123-3.879-0.124-5.809,0c-1.471,0.095-1.899-0.351-1.889-1.856
	c0.068-10.124,0.035-20.249,0.035-30.374c0-6.062,0.037-12.125-0.029-18.186c-0.014-1.312,0.353-1.749,1.676-1.676
	c1.932,0.106,3.88,0.13,5.808-0.004c1.54-0.107,2.006,0.339,1.989,1.933C85.175,101.453,85.221,109.516,85.221,117.578z"/>
<path fill-rule="evenodd" clip-rule="evenodd" fill="#FFFFFF" d="M240.11,125.704c0.683,2.106-0.535,2.966-2.239,3.796
	c-7.911,3.854-15.783,7.792-23.637,11.765c-1.46,0.738-1.728,0.54-1.889-1.128c-0.267-2.775,0.72-4.209,3.296-5.354
	c5.697-2.53,11.226-5.444,16.813-8.221c0.533-0.265,1.396-0.313,1.432-1.03c0.036-0.74-0.821-0.83-1.351-1.088
	c-5.89-2.868-11.751-5.796-17.705-8.523c-1.863-0.853-2.603-1.861-2.469-3.938c0.199-3.08,0.055-3.096,2.814-1.714
	c7.479,3.745,14.929,7.553,22.454,11.205C239.547,122.403,240.827,123.384,240.11,125.704z"/>
<path fill="#FFFFFF" d="M71.412,120.619c-1.159-6.243-4.491-10.9-10.778-12.706c-6.143-1.765-11.625-0.415-15.989,4.516
	c-0.097,0.11-0.294,0.131-0.7,0.3c0-1.208-0.053-2.251,0.015-3.287c0.068-1.036-0.265-1.453-1.364-1.41
	c-1.997,0.077-4.003,0.108-5.996-0.006c-1.383-0.08-1.809,0.313-1.792,1.75c0.079,6.873,0.035,13.747,0.035,20.621
	c0,9.623,0.049,19.246-0.045,28.868c-0.017,1.714,0.479,2.149,2.094,2.027c1.864-0.143,3.75-0.1,5.62-0.009
	c1.193,0.058,1.497-0.405,1.453-1.513c-0.073-1.872-0.02-3.748-0.02-5.623c0-4.913,0-9.825,0-15.089
	c4.246,3.794,5.354,4.582,7.601,4.986c6.627,1.191,12.142-0.786,16.223-6.167C71.663,132.742,72.565,126.836,71.412,120.619z
	 M59.984,134.147c-1.283,2.737-3.372,4.611-6.667,4.672c-3.477,0.065-5.974-1.487-7.634-4.473c-1.439-2.589-1.762-5.429-1.808-8.037
	c0.038-3.061,0.364-5.782,1.614-8.296c1.632-3.285,4.148-5.265,7.992-5.117c3.731,0.145,6.022,2.324,7.219,5.594
	C62.63,123.765,62.365,129.065,59.984,134.147z"/>
<path fill="#FFFFFF" d="M214.896,99.271c-1.818-0.001-3.121,1.334-3.124,3.201c-0.003,1.801,1.377,3.23,3.124,3.239
	c1.718,0.008,3.133-1.453,3.136-3.239C218.034,100.646,216.688,99.271,214.896,99.271z M214.828,105.08
	c-1.562-0.096-2.318-1.107-2.462-2.541c-0.136-1.352,1.192-2.709,2.508-2.727c1.333-0.018,2.563,1.275,2.552,2.685
	C217.416,103.936,216.216,105.165,214.828,105.08z"/>
<path fill="#FFFFFF" d="M216.105,101.666c0.248-0.7-0.631-0.977-1.254-1.048c-0.593-0.068-1.143,0.092-1.145,0.875
	c-0.002,0.882,0,1.764,0,2.646c1.026-1.45,1.026-1.45,2.425,0.141C216.232,103.333,215.796,102.542,216.105,101.666z
	 M215.419,101.834c-0.056,0.182-0.329,0.395-0.523,0.415c-0.373,0.039-0.501-0.254-0.48-0.6c0.02-0.31,0.24-0.383,0.499-0.408
	C215.216,101.331,215.533,101.466,215.419,101.834z"/>
</svg>
