<?xml version="1.0" encoding="utf-8"?>
<!-- Generator: Adobe Illustrator 16.0.0, SVG Export Plug-In . SVG Version: 6.00 Build 0)  -->
<!DOCTYPE svg PUBLIC "-//W3C//DTD SVG 1.1//EN" "http://www.w3.org/Graphics/SVG/1.1/DTD/svg11.dtd">
<svg version="1.1" id="Capa_1" xmlns="http://www.w3.org/2000/svg" xmlns:xlink="http://www.w3.org/1999/xlink" x="0px" y="0px"
	 width="151px" height="75px" viewBox="0 0 151 75" enable-background="new 0 0 151 75" xml:space="preserve">
<g>
	<path fill="#454545" d="M90.296,45.062c0.075-0.199,0.153-0.396,0.234-0.59c0.081-0.194,0.172-0.378,0.271-0.554l10.42-18.421
		c0.1-0.162,0.2-0.262,0.3-0.3s0.237-0.056,0.412-0.056h1.331v26.518h-1.687V29.057c0-0.325,0.019-0.668,0.056-1.031L91.195,46.561
		c-0.175,0.325-0.425,0.487-0.749,0.487h-0.3c-0.313,0-0.563-0.162-0.75-0.487l-10.72-18.553c0.038,0.362,0.057,0.712,0.057,1.049
		v22.601h-1.668V25.141h1.312c0.175,0,0.315,0.019,0.422,0.056s0.209,0.138,0.31,0.3l10.7,18.441
		C89.996,44.287,90.158,44.662,90.296,45.062z"/>
	<path fill="#454545" d="M122.137,51.658c-0.375,0-0.606-0.175-0.693-0.524l-0.263-2.38c-0.513,0.499-1.021,0.949-1.527,1.349
		c-0.506,0.4-1.034,0.737-1.584,1.012c-0.55,0.275-1.143,0.484-1.78,0.628c-0.637,0.144-1.337,0.216-2.099,0.216
		c-0.638,0-1.256-0.094-1.855-0.281s-1.131-0.475-1.593-0.862c-0.463-0.387-0.834-0.883-1.115-1.489s-0.422-1.334-0.422-2.184
		c0-0.787,0.226-1.518,0.675-2.192c0.45-0.675,1.152-1.262,2.108-1.762s2.187-0.899,3.692-1.199c1.505-0.3,3.313-0.475,5.425-0.524
		v-1.949c0-1.725-0.372-3.052-1.115-3.982s-1.846-1.396-3.308-1.396c-0.899,0-1.665,0.125-2.296,0.375s-1.165,0.525-1.602,0.825
		c-0.438,0.3-0.794,0.575-1.068,0.824c-0.275,0.25-0.506,0.375-0.693,0.375c-0.25,0-0.438-0.112-0.563-0.337l-0.318-0.543
		c0.975-0.975,1.999-1.711,3.073-2.211c1.074-0.5,2.293-0.75,3.654-0.75c1,0,1.874,0.159,2.624,0.478
		c0.749,0.318,1.371,0.775,1.864,1.368c0.493,0.594,0.865,1.312,1.115,2.155s0.375,1.784,0.375,2.821v12.144H122.137z
		 M114.641,50.665c0.724,0,1.39-0.078,1.995-0.234c0.606-0.156,1.168-0.375,1.687-0.656c0.519-0.28,1.003-0.615,1.453-1.002
		c0.449-0.388,0.893-0.806,1.33-1.256v-4.854c-1.774,0.05-3.302,0.185-4.582,0.402c-1.28,0.219-2.336,0.516-3.167,0.891
		s-1.443,0.821-1.837,1.34s-0.59,1.108-0.59,1.771c0,0.625,0.103,1.165,0.309,1.621c0.207,0.457,0.479,0.831,0.815,1.125
		c0.338,0.294,0.731,0.509,1.181,0.646C113.685,50.597,114.153,50.665,114.641,50.665z M120.899,24.841l-4.048,4.741
		c-0.101,0.125-0.203,0.209-0.31,0.253c-0.106,0.044-0.234,0.065-0.384,0.065h-1.068l2.942-4.46
		c0.138-0.225,0.281-0.381,0.431-0.469c0.15-0.087,0.375-0.131,0.675-0.131H120.899z"/>
	<path fill="#454545" d="M138.74,35.335c-0.088,0.175-0.225,0.262-0.412,0.262c-0.138,0-0.315-0.078-0.534-0.234
		c-0.219-0.156-0.506-0.331-0.862-0.524c-0.355-0.194-0.793-0.369-1.312-0.525s-1.152-0.234-1.902-0.234
		c-0.675,0-1.29,0.097-1.846,0.29c-0.557,0.193-1.031,0.452-1.425,0.775c-0.394,0.324-0.699,0.701-0.918,1.131
		s-0.328,0.882-0.328,1.355c0,0.586,0.15,1.072,0.45,1.458c0.3,0.387,0.693,0.716,1.181,0.99s1.04,0.511,1.658,0.711
		c0.618,0.199,1.253,0.398,1.902,0.599s1.283,0.422,1.902,0.665c0.618,0.243,1.171,0.547,1.658,0.909s0.881,0.806,1.181,1.33
		c0.3,0.525,0.45,1.162,0.45,1.912c0,0.812-0.147,1.567-0.44,2.268c-0.294,0.699-0.719,1.306-1.274,1.817
		c-0.557,0.513-1.24,0.918-2.053,1.218c-0.812,0.301-1.736,0.45-2.773,0.45c-1.312,0-2.442-0.209-3.392-0.628
		c-0.95-0.418-1.799-0.965-2.549-1.64l0.431-0.637c0.063-0.101,0.132-0.175,0.206-0.226c0.075-0.05,0.182-0.074,0.319-0.074
		c0.162,0,0.362,0.1,0.6,0.3c0.237,0.199,0.546,0.415,0.928,0.646c0.381,0.231,0.855,0.446,1.424,0.646
		c0.568,0.199,1.271,0.3,2.108,0.3c0.787,0,1.48-0.109,2.08-0.328s1.1-0.516,1.499-0.891c0.4-0.374,0.703-0.814,0.909-1.321
		c0.206-0.506,0.31-1.04,0.31-1.602c0-0.625-0.15-1.144-0.45-1.556s-0.693-0.762-1.181-1.05c-0.487-0.287-1.04-0.53-1.658-0.73
		s-1.256-0.399-1.912-0.6c-0.655-0.2-1.293-0.419-1.911-0.656s-1.171-0.537-1.658-0.899s-0.881-0.803-1.181-1.321
		s-0.45-1.165-0.45-1.939c0-0.662,0.144-1.299,0.431-1.912c0.288-0.612,0.697-1.149,1.228-1.612c0.531-0.462,1.178-0.831,1.94-1.105
		c0.762-0.275,1.617-0.413,2.567-0.413c1.137,0,2.146,0.165,3.026,0.494c0.881,0.33,1.689,0.833,2.427,1.511L138.74,35.335z"/>
</g>
<path fill="#454545" d="M42.794,11.006l-1.853-3.208l-4.543-7.869l-4.544,7.869l-1.852,3.208C15.484,13.967,4.56,26.809,4.56,42.202
	c0,17.584,14.255,31.839,31.839,31.839s31.839-14.255,31.839-31.839C68.238,26.808,57.313,13.967,42.794,11.006z M51.517,45.954
	H40.151v11.364h-7.504V45.954H21.282v-7.505h11.365V27.084h7.504v11.365h11.366V45.954L51.517,45.954z"/>
</svg>
