<?xml version="1.0" encoding="utf-8"?>
<!-- Generator: Adobe Illustrator 16.0.0, SVG Export Plug-In . SVG Version: 6.00 Build 0)  -->
<!DOCTYPE svg PUBLIC "-//W3C//DTD SVG 1.1//EN" "http://www.w3.org/Graphics/SVG/1.1/DTD/svg11.dtd">
<svg version="1.1" id="Capa_1" xmlns="http://www.w3.org/2000/svg" xmlns:xlink="http://www.w3.org/1999/xlink" x="0px" y="0px"
	 width="151px" height="75px" viewBox="0 0 151 75" enable-background="new 0 0 151 75" xml:space="preserve">
<g>
	<path fill="#FFFFFF" d="M90.296,45.063c0.075-0.199,0.153-0.396,0.233-0.59c0.082-0.195,0.173-0.379,0.271-0.555l10.42-18.421
		c0.1-0.162,0.2-0.262,0.301-0.3c0.1-0.038,0.236-0.056,0.412-0.056h1.33v26.518h-1.687V29.057c0-0.325,0.019-0.668,0.056-1.031
		L91.195,46.561c-0.176,0.325-0.426,0.487-0.75,0.487h-0.299c-0.313,0-0.563-0.162-0.75-0.487L78.676,28.008
		c0.038,0.362,0.057,0.712,0.057,1.049v22.601h-1.668V25.141h1.313c0.175,0,0.314,0.019,0.422,0.056
		c0.107,0.037,0.209,0.138,0.311,0.3l10.699,18.44C89.996,44.287,90.158,44.662,90.296,45.063z"/>
	<path fill="#FFFFFF" d="M122.137,51.658c-0.375,0-0.605-0.176-0.693-0.524l-0.262-2.38c-0.514,0.499-1.021,0.949-1.527,1.35
		c-0.506,0.399-1.034,0.736-1.584,1.012c-0.551,0.275-1.144,0.484-1.78,0.628c-0.638,0.144-1.337,0.216-2.099,0.216
		c-0.639,0-1.256-0.094-1.855-0.281c-0.6-0.187-1.131-0.475-1.593-0.861c-0.464-0.387-0.834-0.883-1.115-1.489
		c-0.28-0.606-0.422-1.334-0.422-2.185c0-0.787,0.226-1.518,0.675-2.191c0.45-0.676,1.152-1.262,2.107-1.762
		c0.957-0.5,2.188-0.899,3.693-1.199c1.504-0.301,3.313-0.475,5.424-0.524v-1.948c0-1.726-0.371-3.053-1.114-3.982
		c-0.743-0.93-1.847-1.396-3.308-1.396c-0.899,0-1.666,0.125-2.297,0.375s-1.164,0.525-1.602,0.825
		c-0.438,0.3-0.794,0.575-1.068,0.824c-0.275,0.25-0.506,0.375-0.693,0.375c-0.25,0-0.438-0.112-0.563-0.337l-0.318-0.543
		c0.976-0.975,2-1.711,3.073-2.211c1.074-0.5,2.293-0.75,3.654-0.75c1,0,1.874,0.159,2.624,0.478
		c0.749,0.318,1.371,0.775,1.863,1.368c0.494,0.594,0.865,1.312,1.115,2.155c0.25,0.843,0.375,1.784,0.375,2.821v12.144h-0.711
		V51.658z M114.641,50.665c0.725,0,1.391-0.078,1.996-0.233c0.605-0.156,1.168-0.375,1.687-0.656
		c0.519-0.28,1.003-0.615,1.452-1.002c0.449-0.389,0.894-0.807,1.33-1.256v-4.854c-1.773,0.05-3.301,0.185-4.582,0.401
		c-1.279,0.22-2.336,0.517-3.166,0.892c-0.832,0.375-1.443,0.821-1.838,1.34c-0.394,0.519-0.59,1.108-0.59,1.771
		c0,0.625,0.104,1.166,0.309,1.621c0.207,0.457,0.479,0.832,0.816,1.125c0.338,0.295,0.73,0.51,1.18,0.646
		C113.686,50.598,114.152,50.665,114.641,50.665z M120.898,24.841l-4.047,4.741c-0.102,0.125-0.203,0.209-0.311,0.253
		c-0.105,0.044-0.234,0.065-0.384,0.065h-1.068l2.942-4.46c0.138-0.225,0.281-0.381,0.431-0.469
		c0.149-0.087,0.375-0.131,0.675-0.131L120.898,24.841L120.898,24.841z"/>
	<path fill="#FFFFFF" d="M138.74,35.335c-0.088,0.175-0.225,0.262-0.412,0.262c-0.139,0-0.314-0.078-0.534-0.234
		c-0.219-0.156-0.506-0.331-0.862-0.524c-0.354-0.194-0.793-0.369-1.312-0.525s-1.152-0.234-1.902-0.234
		c-0.675,0-1.29,0.097-1.846,0.29c-0.558,0.193-1.031,0.452-1.425,0.775c-0.395,0.324-0.699,0.701-0.918,1.131
		c-0.219,0.43-0.328,0.882-0.328,1.355c0,0.586,0.15,1.072,0.449,1.458c0.301,0.388,0.693,0.716,1.182,0.99s1.04,0.511,1.658,0.711
		c0.617,0.199,1.253,0.397,1.902,0.599c0.648,0.201,1.282,0.422,1.901,0.666c0.618,0.242,1.171,0.547,1.658,0.908
		c0.487,0.362,0.881,0.807,1.181,1.33c0.301,0.525,0.45,1.162,0.45,1.912c0,0.813-0.147,1.566-0.44,2.268
		c-0.293,0.699-0.719,1.307-1.273,1.817c-0.557,0.513-1.24,0.918-2.053,1.218c-0.813,0.301-1.736,0.45-2.773,0.45
		c-1.313,0-2.441-0.209-3.393-0.628c-0.949-0.418-1.799-0.965-2.549-1.641l0.432-0.637c0.063-0.101,0.132-0.175,0.206-0.226
		c0.075-0.05,0.182-0.074,0.319-0.074c0.162,0,0.361,0.101,0.6,0.3c0.236,0.199,0.546,0.415,0.928,0.646
		c0.381,0.23,0.855,0.445,1.424,0.646c0.568,0.199,1.271,0.3,2.108,0.3c0.786,0,1.479-0.108,2.08-0.328
		c0.6-0.219,1.1-0.516,1.499-0.891c0.4-0.374,0.703-0.814,0.908-1.32c0.207-0.506,0.311-1.041,0.311-1.603
		c0-0.625-0.15-1.144-0.45-1.556s-0.692-0.762-1.181-1.051c-0.487-0.287-1.04-0.529-1.658-0.729s-1.256-0.399-1.912-0.601
		c-0.654-0.199-1.293-0.418-1.91-0.655c-0.619-0.237-1.172-0.537-1.658-0.899c-0.487-0.361-0.881-0.803-1.182-1.32
		c-0.3-0.519-0.449-1.166-0.449-1.939c0-0.662,0.144-1.299,0.43-1.912c0.289-0.612,0.697-1.149,1.229-1.612
		c0.531-0.462,1.178-0.831,1.939-1.105c0.763-0.275,1.617-0.413,2.568-0.413c1.137,0,2.146,0.165,3.025,0.494
		c0.881,0.33,1.689,0.833,2.427,1.511L138.74,35.335z"/>
</g>
<path fill="#FFFFFF" d="M42.794,11.006l-1.853-3.208l-4.543-7.869l-4.544,7.869l-1.852,3.208C15.484,13.967,4.56,26.809,4.56,42.202
	c0,17.584,14.255,31.839,31.839,31.839s31.839-14.255,31.839-31.839C68.238,26.808,57.313,13.967,42.794,11.006z M51.517,45.954
	H40.151v11.364h-7.504V45.954H21.282v-7.505h11.365V27.084h7.504v11.365h11.366V45.954L51.517,45.954z"/>
</svg>
